<svg xmlns="http://www.w3.org/2000/svg" width="31.5" height="31.29" viewBox="0 0 31.5 31.29"><g id="af3109e2-e150-4165-adf4-d587fcc64e2a" data-name="Layer 2"><g id="e0fca80d-812e-4140-9859-9c1faddcc870" data-name="Layer 1"><path d="M15.91,0a15.73,15.73,0,0,0-2.5,31.28V20.14H10.3V15.72h3c0-.38.08-.67.09-1,0-.81.06-1.64,0-2.45a5.31,5.31,0,0,1,5-5.7c1.34-.09,2.7,0,4.09,0v4.13c-.76,0-1.54,0-2.32,0-1.8,0-2.36.61-2.36,2.42v2.52h4.69v4.44H17.9v11.2A15.72,15.72,0,0,0,15.91,0Z" fill="#33251f"/></g></g></svg>