<svg xmlns="http://www.w3.org/2000/svg" width="41.812" height="44.5" viewBox="0 0 41.812 44.5">
  <defs>
    <style>
      .cls-1 {
        fill: #235700;
        fill-rule: evenodd;
      }
    </style>
  </defs>
  <path id="電話.svg" class="cls-1" d="M481.5,62.19a2.831,2.831,0,0,0-3.13-.633L475,63.124a2.04,2.04,0,0,1-2.109-.091,19.489,19.489,0,0,1-5.843-6.576,20.043,20.043,0,0,1-2.643-8.472,2.154,2.154,0,0,1,.978-1.915l3.01-2.2a2.985,2.985,0,0,0,1.029-3.092L468.1,34.423a2.832,2.832,0,0,0-2.214-2.463,6.46,6.46,0,0,0-5.171,1.2,10.056,10.056,0,0,0-4.3,7.37c-0.569,3.976-.89,10.288,4.375,19.628S471.558,72.362,475.2,73.845a9.571,9.571,0,0,0,8.384-.122,6.66,6.66,0,0,0,3.6-3.987,2.9,2.9,0,0,0-.977-3.194Zm5.7-4.74a1.821,1.821,0,0,1-.807-0.184,1.968,1.968,0,0,1-.912-2.59,6.638,6.638,0,0,0,.344-3.522,13.547,13.547,0,0,0-1.671-4.809,13.233,13.233,0,0,0-3.233-3.886A6.293,6.293,0,0,0,477.768,41a1.947,1.947,0,0,1,.32-3.879,9.9,9.9,0,0,1,5.155,2.256,17.127,17.127,0,0,1,4.2,5.022,17.536,17.536,0,0,1,2.146,6.236,10.459,10.459,0,0,1-.671,5.7A1.9,1.9,0,0,1,487.2,57.45Zm7.96-.373a1.841,1.841,0,0,1-.807-0.184,1.966,1.966,0,0,1-.912-2.589c1.362-2.97.607-7.93-1.88-12.34s-6.3-7.56-9.5-7.836a1.932,1.932,0,0,1-1.734-2.1,1.911,1.911,0,0,1,2.054-1.776,13.037,13.037,0,0,1,6.8,2.987,23.209,23.209,0,0,1,5.671,6.782,23.689,23.689,0,0,1,2.9,8.421,13.805,13.805,0,0,1-.871,7.518A1.9,1.9,0,0,1,495.158,57.078Z" transform="translate(-456.094 -30.25)"/>
</svg>
