<svg xmlns="http://www.w3.org/2000/svg" width="412.26" height="113.79" viewBox="0 0 412.26 113.79"><g id="Layer_2" data-name="Layer 2"><g id="ベース"><path d="M26.85,67.94C22,63.45,15.51,43,34.16,23.24,51.27,5.14,44.56,0,44.56,0S69.1,7.34,46.7,26.42C34,37.24,23.13,46.18,26.85,67.94Z" fill="#fff"/><path d="M31.69,72.41c-6-5.54-6.15-27.33,17.36-39.83C71.46,20.67,66.16,9.3,66.16,5.62c7.11,2.91,25.72,21.93-6.3,37.47C49.41,48.16,28.57,56.27,31.69,72.41Z" fill="#fff"/><path d="M38.83,79c-9-8.28-5.08-20.92,12.13-26.18C89.76,41,86.58,25.28,87.13,17.3,95.34,22,108.31,50.43,73.71,58,62,60.53,33.47,62.25,38.83,79Z" fill="#fff"/><path d="M44.93,113.76c13.47.55,22.44-8.19,21.93-17.54-.27-5-3.71-9.41-8.94-12.24a13.16,13.16,0,0,1,2,6.2c.51,9.35-9.34,17.49-22,18.19a29.81,29.81,0,0,1-9.9-1.09A28.79,28.79,0,0,0,44.93,113.76Z" fill="#fff"/><path d="M33.9,104.61c13.16,1.68,22.71-6.14,23-15.36.16-5-2.84-9.57-7.73-12.79a13,13,0,0,1,1.42,6.26C50.31,92,40,99.11,27.47,98.71a29.09,29.09,0,0,1-9.62-1.92A28.3,28.3,0,0,0,33.9,104.61Z" fill="#fff"/><path d="M22,93.19c13.84,3.79,24.53-2,26.1-10.33C49,78.35,47,74,42.2,70.22a10.59,10.59,0,0,1,.67,5.94C41.3,84.49,29.26,89.23,16,86.73A36.87,36.87,0,0,1,6,83.34,32.91,32.91,0,0,0,22,93.19Z" fill="#fff"/><path d="M15.47,14.3C12,16.32,3.88,13.3,0,30.1c8.72-8,16.39-6.28,13.61,1.43-3.3,9.17-3.14,21.31,7.11,30.79-5.78-24.94,9.25-30.48-1-40.93C29.36,9.61,18,2.85,18,2.85S18.93,12.28,15.47,14.3Z" fill="#fff"/><path d="M335.72,80.74V86.6a11.06,11.06,0,0,1-.93,4.68A10.47,10.47,0,0,1,327,97.43a8.67,8.67,0,0,1-1.83.18,10.62,10.62,0,0,1-10.45-8.92,8,8,0,0,1-.13-1.54c0-2.16,0-4.31,0-6.46a18.71,18.71,0,0,1,1.63-7.29,19.82,19.82,0,0,1,11.62-10.7,17.34,17.34,0,0,1,5-1c.47,0,.94-.06,1.41-.06a19.68,19.68,0,0,1,18.48,13.41,18.29,18.29,0,0,1,.94,4.74c.13,2,.09,4,.06,6a19,19,0,0,1-.74,4.91,19.38,19.38,0,0,1-4,7.37,19.77,19.77,0,0,1-6.46,5,19,19,0,0,1-5.7,1.71,12.32,12.32,0,0,1-1.92.14,3.54,3.54,0,0,1-1.2-.26,1.45,1.45,0,0,1-1-1.36,1.54,1.54,0,0,1,.85-1.48,4,4,0,0,1,1.61-.41,17.75,17.75,0,0,0,3.33-.6,16.19,16.19,0,0,0,9.83-8.07,15.54,15.54,0,0,0,1.63-5.27,38.73,38.73,0,0,0,.15-5.49c0-.73,0-1.47-.08-2.19a16,16,0,0,0-11.65-14,16.21,16.21,0,0,0-3.47-.56,16,16,0,0,0-14.91,8.23,15.11,15.11,0,0,0-1.93,6.36c-.06.85-.08,1.71-.08,2.57,0,1.45,0,2.9,0,4.35a7.21,7.21,0,0,0,1.77,4.94,6.67,6.67,0,0,0,3.92,2.23,7,7,0,0,0,8.27-6.15c.08-.74.09-1.48.1-2.23,0-3.74,0-7.49,0-11.24a5.42,5.42,0,0,1,.24-1.43,1.56,1.56,0,0,1,1.46-1.13,1.63,1.63,0,0,1,1.54,1,4.69,4.69,0,0,1,.28,1.82Z" fill="#fff"/><path d="M284.65,45.62c-.2-.28-.43-.63-.67-1a25.32,25.32,0,0,1-2.76.31.43.43,0,0,1-.47-.46.42.42,0,0,1,.41-.44,22.13,22.13,0,0,0,2.41-.25c-.14-.29-.26-.58-.37-.87-.67.11-1.33.19-1.89.23a.43.43,0,0,1-.46-.46.39.39,0,0,1,.39-.43c.48,0,1.07-.09,1.65-.18-.1-.31-.19-.61-.26-.91a.5.5,0,0,1,0-.12c0-.26.26-.39.5-.39a.45.45,0,0,1,.47.33c.08.31.17.62.26.93.6-.11,1.15-.24,1.56-.36a.41.41,0,0,1,.16,0A.46.46,0,0,1,286,42a.4.4,0,0,1-.31.39c-.45.13-1,.27-1.57.38a9.19,9.19,0,0,0,.36.86,16.18,16.18,0,0,0,1.73-.43l.15,0a.47.47,0,0,1,.46.47.42.42,0,0,1-.34.41c-.45.14-1,.28-1.56.4a10.63,10.63,0,0,0,1,1.45.57.57,0,0,1,.14.37.48.48,0,0,1-.5.48,1,1,0,0,1-.23,0,5.57,5.57,0,0,0-2-.36c-1.1,0-1.42.33-1.42.71s.39.73,1.7.73c.37,0,.62,0,.89,0a.45.45,0,0,1,.53.46.46.46,0,0,1-.45.46,8.5,8.5,0,0,1-1,0c-1.9,0-2.74-.59-2.74-1.63s.77-1.56,2.45-1.56a4.65,4.65,0,0,1,1.22.14Z" fill="#fff"/><path d="M290.65,45.43a3.76,3.76,0,0,1,.54-.8,3.19,3.19,0,0,1,1.73-1.06c0-.31-.05-.61-.1-.91s.2-.4.42-.4a.4.4,0,0,1,.43.32c.05.32.09.62.11.93a1.92,1.92,0,0,1,2,2,2.08,2.08,0,0,1-2.29,2.07h-.08a3.42,3.42,0,0,1-.87,1.07.47.47,0,0,1-.3.11.41.41,0,0,1-.43-.4.4.4,0,0,1,.17-.31,2.56,2.56,0,0,0,.59-.65,1.73,1.73,0,0,1-.84-.83.34.34,0,0,1-.05-.19.41.41,0,0,1,.41-.38.38.38,0,0,1,.34.2,1.29,1.29,0,0,0,.45.45,6.9,6.9,0,0,0,.13-1.58c0-.24,0-.48,0-.72a2.88,2.88,0,0,0-1.24.88,4.24,4.24,0,0,0-.78,1.33,1.21,1.21,0,0,0-.09.4c0,.06,0,.13,0,.24a.45.45,0,0,1-.87.11,7,7,0,0,1-.24-1.85,10.9,10.9,0,0,1,.22-2.07.43.43,0,0,1,.43-.32c.26,0,.5.17.44.45a9.92,9.92,0,0,0-.24,1.91Zm3.21-.36a6.56,6.56,0,0,1-.19,1.69,1.14,1.14,0,0,0,1.19-1.25,1.12,1.12,0,0,0-1-1.25C293.85,44.54,293.86,44.81,293.86,45.07Z" fill="#fff"/><path d="M299.31,44.43a.52.52,0,0,1-.5-.51.49.49,0,0,1,.34-.45,7,7,0,0,1,2.59-.59c1.41,0,2.08.64,2.08,1.84a4.58,4.58,0,0,1-2,3.78.56.56,0,0,1-.34.12.51.51,0,0,1-.52-.49.55.55,0,0,1,.26-.45,3.45,3.45,0,0,0,1.54-3c0-.58-.24-.89-1-.89a6.15,6.15,0,0,0-2.22.53A.53.53,0,0,1,299.31,44.43ZM303,41.3a.49.49,0,0,1,.33.47.51.51,0,0,1-.47.53l-.18,0a14.56,14.56,0,0,0-2-.54.46.46,0,0,1-.38-.46.5.5,0,0,1,.58-.53A9.67,9.67,0,0,1,303,41.3Z" fill="#fff"/><path d="M291.19,65.23A8.85,8.85,0,0,0,285,67.51c-.56.49-1.1,1-1.63,1.54-1.9,1.87-3.79,3.76-5.68,5.64a4.45,4.45,0,0,1-1.32,1,1.62,1.62,0,0,1-1.93-.33,1.58,1.58,0,0,1-.3-1.53,2.82,2.82,0,0,1,.81-1.3c.47-.49.95-1,1.42-1.43L283,64.46l7-6.92q1.57-1.56,3.16-3.11a8.43,8.43,0,0,1,1.14-.91,1.82,1.82,0,0,1,1.44-.27,1.45,1.45,0,0,1,1.14,1.47,2.37,2.37,0,0,1-.75,1.68c-.8.84-1.64,1.64-2.46,2.47l-1.74,1.79a1.34,1.34,0,0,0-.22.31c-.17.3-.11.49.21.6a5.36,5.36,0,0,0,1,.23A12.27,12.27,0,0,1,298.13,64a12.11,12.11,0,0,1,4.93,8A11.94,11.94,0,0,1,302,79.29a10.88,10.88,0,0,1-2,2.93c-1.31,1.37-2.66,2.7-4,4-.54.55-1.11,1.08-1.64,1.64a.9.9,0,0,0,0,1.47c.52.52,1.1,1,1.66,1.49l5.66,4.94,5.86,5.11c1.74,1.52,3.49,3,5.21,4.55a7,7,0,0,1,1,1.16,1.62,1.62,0,0,1,.22,1.45,1.54,1.54,0,0,1-2,1,3.2,3.2,0,0,1-1.15-.65c-.84-.71-1.68-1.43-2.51-2.16l-5.24-4.57-5.63-4.92-4.86-4.23c-.23-.2-.45-.4-.69-.58a1.1,1.1,0,0,0-1.65,0c-.22.19-.43.39-.63.59l-8,8-4.77,4.73c-1,1-2.09,2-3.15,3a3.85,3.85,0,0,1-.92.63,1.72,1.72,0,0,1-1.53,0,1.54,1.54,0,0,1-.81-1.58,2.72,2.72,0,0,1,.71-1.4c.64-.68,1.31-1.33,2-2l.27-.28,9-9L287.23,90l4.82-4.79,4.87-4.81a9.15,9.15,0,0,0,2.26-3.51,8.67,8.67,0,0,0-.34-6.65,8.39,8.39,0,0,0-3.78-4A7.73,7.73,0,0,0,291.19,65.23Z" fill="#fff"/><path d="M381.43,42.36h.07a8.54,8.54,0,0,0,.92,0,.44.44,0,0,1,.48.48.43.43,0,0,1-.39.46,8.94,8.94,0,0,1-1,0h-.25c-.05.42-.13.84-.19,1.26h.15a7.88,7.88,0,0,0,1.41-.12.46.46,0,0,1,.53.47.46.46,0,0,1-.39.48,8.38,8.38,0,0,1-1.56.14H381c0,.32,0,.57,0,.79,0,1,.4,1.3,1.2,1.3,1,0,1.52-.35,1.52-1.24a2.61,2.61,0,0,0-.11-.67.59.59,0,0,1,0-.13.47.47,0,0,1,.51-.43.54.54,0,0,1,.54.38,2.71,2.71,0,0,1,.13.83c0,1.54-1,2.29-2.56,2.29a2,2,0,0,1-2.24-2.26,7.76,7.76,0,0,1,.05-.91,7.79,7.79,0,0,1-1.08-.18.49.49,0,0,1-.38-.49.47.47,0,0,1,.46-.49.44.44,0,0,1,.16,0,9.17,9.17,0,0,0,.95.17c.06-.43.12-.84.19-1.26a6,6,0,0,1-.94-.15.47.47,0,1,1,.18-.92c.29.06.58.1.93.14l.22-1.3a.49.49,0,0,1,.51-.38.45.45,0,0,1,.5.52Z" fill="#fff"/><path d="M391.64,44.71a6.48,6.48,0,0,0,.23-.63.42.42,0,0,1,.39-.28.37.37,0,0,1,.4.36s0,.07,0,.1a8.14,8.14,0,0,1-.63,1.49.75.75,0,0,1-.63.37.58.58,0,0,1-.57-.43,6,6,0,0,1-.22-1.55,12.49,12.49,0,0,1,.34-2.65.51.51,0,0,1,.51-.37.45.45,0,0,1,.49.41s0,.07,0,.11a12.55,12.55,0,0,0-.34,2.41,5.74,5.74,0,0,0,0,.66Zm2.86-3.78a.51.51,0,0,1,.53.44,21.26,21.26,0,0,1,.19,2.89,5,5,0,0,1-2,4.28.62.62,0,0,1-.38.14.5.5,0,0,1-.5-.5.6.6,0,0,1,.23-.45,4.16,4.16,0,0,0,1.53-3.47,22.45,22.45,0,0,0-.18-2.81C393.92,41.11,394.21,40.93,394.5,40.93Z" fill="#fff"/><path d="M395.83,88.19c0-4.84,0-9.68,0-14.51,0-1.21-.43-1.46-1.46-1.46h-7a4,4,0,0,1-1.56-.27,1.6,1.6,0,0,1-1-1.09,1.58,1.58,0,0,1,1-1.9,4,4,0,0,1,1.56-.27h6.76a6.07,6.07,0,0,0,.85-.06.88.88,0,0,0,.82-.76,3,3,0,0,0,0-.6c0-3.57,0-7.15,0-10.72a12.67,12.67,0,0,1,.15-1.62,2,2,0,0,1,.51-1,1.55,1.55,0,0,1,2.49.34,3.48,3.48,0,0,1,.33,1,8.93,8.93,0,0,1,.1,1.37V67.3a3.07,3.07,0,0,0,.08.67.79.79,0,0,0,.68.63,4.45,4.45,0,0,0,.81.08h6.89a4,4,0,0,1,1.56.27,1.66,1.66,0,0,1,.94.88,1.6,1.6,0,0,1-1,2.13,4.37,4.37,0,0,1-1.52.25H401a5.54,5.54,0,0,0-.81.07.84.84,0,0,0-.74.78,2.42,2.42,0,0,0,0,.47v29.28a4.64,4.64,0,0,0,.07.64.77.77,0,0,0,.68.63,4.43,4.43,0,0,0,.81.07c2.84,0,5.68,0,8.52,0a7.86,7.86,0,0,1,1.45.17,1.65,1.65,0,0,1,1,.61,1.56,1.56,0,0,1-.76,2.48,4.62,4.62,0,0,1-1.43.25q-13.31,0-26.6,0a5.23,5.23,0,0,1-1.35-.23,1.59,1.59,0,0,1-.13-3,4.41,4.41,0,0,1,1.69-.27h10.85c.27,0,.54,0,.81-.06a.85.85,0,0,0,.79-.73,2.68,2.68,0,0,0,.05-.64Z" fill="#fff"/><path d="M376.94,93.88c0,4.14,0,8.29,0,12.44a11.5,11.5,0,0,1-.16,1.75,1.75,1.75,0,0,1-.79,1.27,1.54,1.54,0,0,1-2.19-.54,3.77,3.77,0,0,1-.35-1.14,8.28,8.28,0,0,1-.09-1.41q0-12.4,0-24.8a5.56,5.56,0,0,0-.08-.81c-.06-.35-.3-.41-.62-.26a2.26,2.26,0,0,0-.53.36,15,15,0,0,1-2.68,1.7,13.05,13.05,0,0,1-4.28,1.22,3.4,3.4,0,0,1-1.61-.15,1.58,1.58,0,0,1-1.14-1.46,1.64,1.64,0,0,1,1.06-1.57,7.21,7.21,0,0,1,1.71-.4A9.42,9.42,0,0,0,372.29,75a9.73,9.73,0,0,0,1.06-4.52c0-1.2,0-2.41,0-3.61a3.05,3.05,0,0,0,0-.43.92.92,0,0,0-.89-.89,3.09,3.09,0,0,0-.43,0h-4.73c-.65,0-1.29,0-1.93-.06a2.47,2.47,0,0,1-1.58-.59,1.53,1.53,0,0,1,.28-2.49A2.68,2.68,0,0,1,365.2,62c.45,0,.91-.08,1.37-.08H372c1,0,1.32-.3,1.33-1.34,0-1.34,0-2.67,0-4a16,16,0,0,1,.15-1.7,2,2,0,0,1,.48-1,1.54,1.54,0,0,1,2.51.27,3.77,3.77,0,0,1,.35,1.14,8.28,8.28,0,0,1,.09,1.41c0,1.29,0,2.58,0,3.88,0,.13,0,.26,0,.38a.94.94,0,0,0,1,1h5.9a13.77,13.77,0,0,1,1.7.16,1.87,1.87,0,0,1,1,.51,1.54,1.54,0,0,1-.28,2.46,2.93,2.93,0,0,1-1.48.4l-6.49.06c-1.06,0-1.35.29-1.35,1.36,0,1.22,0,2.44,0,3.66a9.63,9.63,0,0,0,8.16,9.57,10,10,0,0,1,1.7.41,1.74,1.74,0,0,1,.75.54,1.54,1.54,0,0,1-.64,2.4,3.49,3.49,0,0,1-1.86.21,12.88,12.88,0,0,1-4.53-1.38,15.83,15.83,0,0,1-2.44-1.61,2.88,2.88,0,0,0-.47-.3c-.3-.14-.5,0-.58.27a3.07,3.07,0,0,0-.09.8Q376.94,87.66,376.94,93.88Z" fill="#fff"/><path d="M234.14,44.7a4.94,4.94,0,0,1,.69-1A4,4,0,0,1,237,42.35c0-.38-.08-.75-.13-1.12s.23-.49.5-.49a.47.47,0,0,1,.51.39c.05.38.1.76.13,1.14a2.32,2.32,0,0,1,2.4,2.43,2.51,2.51,0,0,1-2.78,2.51h-.12a4,4,0,0,1-1.07,1.31.55.55,0,0,1-.36.14.51.51,0,0,1-.51-.47.53.53,0,0,1,.22-.4,3,3,0,0,0,.73-.79,2.14,2.14,0,0,1-1.05-1,.4.4,0,0,1-.07-.22.47.47,0,0,1,.48-.44.45.45,0,0,1,.41.25,1.88,1.88,0,0,0,.59.57,8.69,8.69,0,0,0,.18-2c0-.3,0-.61,0-.92a3.65,3.65,0,0,0-1.55,1.09,5.51,5.51,0,0,0-1,1.65,1.36,1.36,0,0,0-.11.48,2.27,2.27,0,0,0,0,.3.51.51,0,0,1-1,.13,8.17,8.17,0,0,1-.3-2.25,12.92,12.92,0,0,1,.28-2.53.49.49,0,0,1,.51-.39.46.46,0,0,1,.49.55,12.29,12.29,0,0,0-.29,2.21.86.86,0,0,0,0,.22Zm3.92-.54a8.54,8.54,0,0,1-.22,2.09,1.56,1.56,0,0,0,.2-3.1C238.05,43.49,238.06,43.83,238.06,44.16Z" fill="#fff"/><path d="M245.65,44.43a.52.52,0,0,1-.5-.51.49.49,0,0,1,.34-.45,7,7,0,0,1,2.59-.59c1.41,0,2.08.64,2.08,1.84a4.58,4.58,0,0,1-2,3.78.54.54,0,0,1-.34.12.5.5,0,0,1-.51-.49.53.53,0,0,1,.26-.45,3.48,3.48,0,0,0,1.54-3c0-.58-.25-.89-1-.89a6.15,6.15,0,0,0-2.22.53A.53.53,0,0,1,245.65,44.43Zm3.74-3.13a.5.5,0,0,1,.32.47.51.51,0,0,1-.47.53l-.18,0a14.16,14.16,0,0,0-2-.54.46.46,0,0,1-.38-.46.51.51,0,0,1,.59-.53A9.83,9.83,0,0,1,249.39,41.3Z" fill="#fff"/><path d="M252,65.35c-1.67,0-3.33,0-5,0a6.59,6.59,0,0,1-2.41-.35,3.89,3.89,0,0,1-2.53-3,3.84,3.84,0,0,1,.74-3.12,7.07,7.07,0,0,1,.75-.89c.92-.94,1.86-1.87,2.8-2.8q.65-.63,1.32-1.23a2.54,2.54,0,0,1,1.17-.61,1.52,1.52,0,0,1,1.86,2,3.35,3.35,0,0,1-.9,1.4l-3.06,3a8,8,0,0,0-.56.6c-.5.6-.51,1.28.51,1.41a4.55,4.55,0,0,0,.52,0h8.52c.93,0,1.87,0,2.8,0a4.48,4.48,0,0,1,3.25,1.33,3.92,3.92,0,0,1,.58,4.65,6.93,6.93,0,0,1-1,1.3c-1.18,1.21-2.39,2.4-3.59,3.6l-1.67,1.67c-.59.59-.5,1.08.09,1.62s1.18,1,1.77,1.56c1.91,1.66,3.83,3.32,5.73,5a2.78,2.78,0,0,1,1,1.69,1.5,1.5,0,0,1-.87,1.61,1.84,1.84,0,0,1-1.65-.14,7.3,7.3,0,0,1-1.12-.79L255,79.63c-.45-.39-.9-.79-1.38-1.16a1.11,1.11,0,0,0-1.71,0c-.34.31-.67.63-1,1-.14.13-.26.26-.4.4-1.58,1.56-3.15,3.13-4.74,4.69a8.41,8.41,0,0,1-1,.87,2,2,0,0,1-1.73.41A1.5,1.5,0,0,1,242,84.17a3.05,3.05,0,0,1,1-1.79c1.6-1.61,3.22-3.2,4.83-4.8.5-.49,1-1,1.48-1.49a.85.85,0,0,0-.06-1.41c-.71-.67-1.45-1.29-2.17-2-.4-.37-.8-.75-1.16-1.15a2,2,0,0,1-.49-1,1.5,1.5,0,0,1,1.67-1.79,2.9,2.9,0,0,1,1.57.73c.89.74,1.76,1.51,2.65,2.26.22.18.45.36.68.52a.92.92,0,0,0,1.12,0,2.84,2.84,0,0,0,.47-.37l2.8-2.74,1.84-1.81a4.48,4.48,0,0,0,.63-.75c.38-.58.17-1-.5-1.17a4,4,0,0,0-.77-.07Z" fill="#fff"/><path d="M250.59,110.14c-2.87,0-5.74,0-8.61,0a7.6,7.6,0,0,1-3.38-.73,7,7,0,0,1-3.93-5,8.44,8.44,0,0,1-.18-1.66c0-3-.05-5.91-.05-8.87a12.22,12.22,0,0,1,.16-1.7,1.8,1.8,0,0,1,.57-1,1.56,1.56,0,0,1,2.5.57,3.63,3.63,0,0,1,.26,1,12.56,12.56,0,0,1,.08,1.5c0,2.75,0,5.51,0,8.26a4.2,4.2,0,0,0,.66,2.41,3.49,3.49,0,0,0,2.51,1.56,10.79,10.79,0,0,0,1.5.09q8,0,15.93,0a6.92,6.92,0,0,0,1.7-.18,3.54,3.54,0,0,0,2.78-3.3c0-.73,0-1.46.06-2.19a5.9,5.9,0,0,1,.2-1.62,1.68,1.68,0,0,1,1.15-1.23,1.55,1.55,0,0,1,1.81.79,3.25,3.25,0,0,1,.37,1.49c0,.87,0,1.75,0,2.62a7.21,7.21,0,0,1-3,5.8,6.76,6.76,0,0,1-3.29,1.27c-.51,0-1,.08-1.54.09Z" fill="#fff"/><path d="M226.25,80.25V72.94a5.1,5.1,0,0,0-.27-1.78,3.17,3.17,0,0,0-1.38-1.7,1.43,1.43,0,0,0-1.83.11c-.53.45-1,1-1.54,1.43a6.5,6.5,0,0,1-1,.78,2,2,0,0,1-1.43.3,1.51,1.51,0,0,1-1.17-1.81,2.92,2.92,0,0,1,.87-1.51c1.75-1.75,3.52-3.5,5.28-5.24.48-.48,1-.94,1.45-1.41l4-4,2.7-2.65c.53-.51,1.05-1,1.6-1.5a2.69,2.69,0,0,1,1.15-.65,1.53,1.53,0,0,1,1.94,1.92,3,3,0,0,1-.87,1.4l-5,5-3.49,3.45-.15.15c-.67.68-.65,1,.06,1.67a7,7,0,0,1,2.57,5.5c0,5.39,0,10.77,0,16.15a3.17,3.17,0,0,1-.35,1.54,1.54,1.54,0,0,1-2.72.11,3.4,3.4,0,0,1-.37-1,6.41,6.41,0,0,1-.09-1.16C226.24,85.42,226.25,82.84,226.25,80.25Z" fill="#fff"/><path d="M229.75,100.44c0,.77,0,1.55,0,2.32a7.83,7.83,0,0,1-7,7.3,10,10,0,0,1-3,0,2.63,2.63,0,0,1-1-.42,1.45,1.45,0,0,1-.6-1.48,1.63,1.63,0,0,1,1.1-1.27,4.85,4.85,0,0,1,1.56-.25c.55,0,1.09,0,1.63-.11a4.19,4.19,0,0,0,3.63-3.61,10.39,10.39,0,0,0,.09-1.37c0-.93,0-1.86,0-2.79a8.2,8.2,0,0,1,.18-1.49,1.72,1.72,0,0,1,.93-1.23,1.54,1.54,0,0,1,2,.7,3.19,3.19,0,0,1,.37,1.57v2.16Z" fill="#fff"/><path d="M234.43,77.31c0-1.65,0-3.3,0-5,0-.53,0-1.06.07-1.58a2.52,2.52,0,0,1,.49-1.4,1.54,1.54,0,0,1,2.53.09,2.78,2.78,0,0,1,.43,1.59q0,5.75.06,11.49a12.45,12.45,0,0,1-.17,1.83,1.93,1.93,0,0,1-.28.72,1.54,1.54,0,0,1-2.69,0,3.51,3.51,0,0,1-.35-1,8.29,8.29,0,0,1-.09-1.32C234.42,80.9,234.43,79.11,234.43,77.31Z" fill="#fff"/><path d="M250.75,96a1.47,1.47,0,0,1-1.84,1.47,2.86,2.86,0,0,1-1.23-.58c-.94-.81-1.88-1.62-2.79-2.46a2.2,2.2,0,0,1-.7-1.3A1.51,1.51,0,0,1,246,91.37a2.54,2.54,0,0,1,1.23.57c.95.82,1.9,1.64,2.82,2.49A2,2,0,0,1,250.75,96Z" fill="#fff"/><path d="M254.41,93.09a1.56,1.56,0,0,1,1.87-1.72,2.73,2.73,0,0,1,1.22.59c.94.8,1.88,1.61,2.79,2.45A2.07,2.07,0,0,1,261,96a1.5,1.5,0,0,1-1.83,1.5A2.44,2.44,0,0,1,258,97c-1-.86-2-1.73-3-2.62A1.92,1.92,0,0,1,254.41,93.09Z" fill="#fff"/><path d="M104.5,64.47a21.39,21.39,0,0,1-5.14,6.4.44.44,0,0,1-.69-.05l-.3-.31a.44.44,0,0,1,0-.7,20.81,20.81,0,0,0,4.56-6,.47.47,0,0,1,.65-.26l.63.24A.41.41,0,0,1,104.5,64.47Zm1.37,4.74a71.55,71.55,0,0,1-2.7,7.79c2.38-.18,5-.45,8-.86-.7-1.17-1.43-2.34-2.2-3.55a.41.41,0,0,1,.18-.67l.52-.24a.48.48,0,0,1,.67.18,64,64,0,0,1,3.59,6,.44.44,0,0,1-.22.66l-.57.25a.46.46,0,0,1-.67-.23c-.5-.88-.75-1.38-.77-1.43a115.42,115.42,0,0,1-12.63,1.17.44.44,0,0,1-.51-.46.45.45,0,0,1,.48-.51c.89-.06,1.59-.07,2.12-.11a68.11,68.11,0,0,0,2.93-8.45.43.43,0,0,1,.6-.33l.79.22A.45.45,0,0,1,105.87,69.21Zm3.55-5.36a20.6,20.6,0,0,0,4.58,6,.44.44,0,0,1,0,.7l-.29.33a.44.44,0,0,1-.69,0,21,21,0,0,1-5.14-6.4.41.41,0,0,1,.25-.64l.62-.24A.46.46,0,0,1,109.42,63.85Z" fill="#fff"/><path d="M121.41,62.84c.66,1,1.19,1.91,1.65,2.77H126a20.67,20.67,0,0,0,1.66-2.69.51.51,0,0,1,.63-.3l.65.19c.35.09.46.33.28.64-.37.64-.82,1.35-1.39,2.16h4.39a.43.43,0,0,1,.49.49c0,.29-.16.44-.49.44h-4.72a13,13,0,0,0,5,5.87.49.49,0,0,1,.24.64l-.13.37a.41.41,0,0,1-.66.24,12.4,12.4,0,0,1-1.39-.92v4.54h1.63a.43.43,0,0,1,.49.49v0a.43.43,0,0,1-.49.49H116.84a.44.44,0,0,1-.5-.49v0a.44.44,0,0,1,.5-.49h1.63V72.74a13.4,13.4,0,0,1-1.39.92.4.4,0,0,1-.66-.24l-.13-.37a.49.49,0,0,1,.24-.64,13.11,13.11,0,0,0,5-5.87h-4.72a.44.44,0,0,1-.5-.5c0-.29.17-.43.5-.43h4.35c-.45-.81-.88-1.5-1.24-2.07a.4.4,0,0,1,.2-.66l.59-.24A.5.5,0,0,1,121.41,62.84Zm-1.21,8.35h8.6a17,17,0,0,1-3.16-4.65h-2.27A16.8,16.8,0,0,1,120.2,71.19Zm1.76.89h-1.7v5.2H122Zm3.4,0h-1.72v5.2h1.72Zm3.39,0h-1.7v5.2h1.7Z" fill="#fff"/><path d="M138,75.85a10.59,10.59,0,0,1-2.13,2.87.46.46,0,0,1-.69,0l-.28-.22a.43.43,0,0,1-.05-.69,12,12,0,0,0,1.76-2.69.43.43,0,0,1,.67-.22l.5.27A.45.45,0,0,1,138,75.85Zm2.87-1.72h-5a.43.43,0,0,1-.49-.49V63.85a.43.43,0,0,1,.49-.49h5a.43.43,0,0,1,.49.49v9.79A.43.43,0,0,1,140.83,74.13Zm-1.23-9.82h-2.5v2.36h2.5Zm0,3.2h-2.5V69.9h2.5Zm0,3.24h-2.5v2.41h2.5Zm.33,4.35a23.2,23.2,0,0,1,2,2.64.44.44,0,0,1-.17.67l-.42.24a.43.43,0,0,1-.67-.18,20.24,20.24,0,0,0-1.78-2.56.44.44,0,0,1,.09-.7l.3-.2A.45.45,0,0,1,139.93,75.1ZM151.44,66a.44.44,0,0,1-.49.5h-1.14v10.1c0,1.94-.24,2.19-2.43,2.19-.64,0-1.52,0-2.73-.09a.47.47,0,0,1-.49-.49c0-.35.16-.52.49-.5,1.12.06,1.94.08,2.51.08.82,0,.8,0,.8-1.19V69.28A23.64,23.64,0,0,1,142,76a.43.43,0,0,1-.69-.08l-.2-.25a.44.44,0,0,1,.07-.7,22.8,22.8,0,0,0,6.6-8.52h-5.43a.44.44,0,0,1-.49-.5.43.43,0,0,1,.49-.49H148V63.32a.44.44,0,0,1,.5-.5h.86a.44.44,0,0,1,.49.5v2.14H151A.43.43,0,0,1,151.44,66Z" fill="#fff"/><path d="M168.26,78.92h-.83a.43.43,0,0,1-.49-.49V78.1H155.27v.33a.44.44,0,0,1-.5.49H154a.43.43,0,0,1-.49-.49V63.76a.44.44,0,0,1,.49-.5h14.31a.44.44,0,0,1,.49.5V78.43A.43.43,0,0,1,168.26,78.92ZM166.94,64.2H155.27v13h11.67Zm-.53,3.31c0,.29-.17.44-.49.44H164.8v5.8c0,2-.13,2.27-2,2.27-.62,0-1.48-.06-2.58-.1a.44.44,0,0,1-.49-.49c0-.29.18-.44.51-.42.94.07,2.75.18,2.75-.11V68h-6.72a.44.44,0,0,1-.49-.5c0-.29.16-.44.49-.44H163V65.55a.43.43,0,0,1,.49-.49h.81a.43.43,0,0,1,.49.49V67h1.12A.44.44,0,0,1,166.41,67.51Zm-7.56,1.74a23.47,23.47,0,0,1,2,3.12.47.47,0,0,1-.2.68l-.55.31a.44.44,0,0,1-.68-.22,26.33,26.33,0,0,0-1.85-3,.45.45,0,0,1,.15-.7l.46-.27A.44.44,0,0,1,158.85,69.25Z" fill="#fff"/><path d="M172.14,67.2c1,.8,1.9,1.53,2.62,2.17a.48.48,0,0,1,.05.7l-.24.31a.4.4,0,0,1-.69,0c-.86-.84-1.72-1.58-2.54-2.24a.45.45,0,0,1-.08-.69l.18-.22A.44.44,0,0,1,172.14,67.2Zm3.42,6.31a20.41,20.41,0,0,1-2.49,5,.44.44,0,0,1-.67.13l-.5-.33a.46.46,0,0,1-.13-.68A23.4,23.4,0,0,0,174,72.91a.43.43,0,0,1,.65-.3l.6.26A.46.46,0,0,1,175.56,73.51ZM173,63.17c.88.68,1.67,1.36,2.33,1.94a.48.48,0,0,1,.05.7l-.24.29a.42.42,0,0,1-.69,0c-.79-.75-1.54-1.39-2.25-2a.45.45,0,0,1-.06-.7l.17-.21A.43.43,0,0,1,173,63.17ZM186.9,65.4c0,.3-.16.46-.49.46h-4.08v3.77h4.89a.5.5,0,0,1,0,1h-5.64A64.71,64.71,0,0,1,179.37,77c1.86-.15,3.67-.37,5.52-.62-.64-1.25-1.15-2.25-1.55-3a.43.43,0,0,1,.23-.66l.57-.25a.46.46,0,0,1,.66.22c1,1.86,1.94,3.55,2.67,5.12a.43.43,0,0,1-.25.64l-.64.27a.45.45,0,0,1-.66-.27c-.2-.46-.41-.86-.55-1.19a96.49,96.49,0,0,1-9.94,1c-.33,0-.49-.14-.51-.47a.46.46,0,0,1,.46-.52c.47,0,1.15,0,2-.1a58.06,58.06,0,0,0,2.27-6.48H175.8a.5.5,0,0,1,0-1h4.66V65.86H176.6a.43.43,0,0,1-.49-.49c0-.29.16-.46.49-.46h3.86V63.3a.44.44,0,0,1,.5-.49h.88a.43.43,0,0,1,.49.49v1.61h4.08A.43.43,0,0,1,186.9,65.4Z" fill="#fff"/><path d="M205.41,77.41a.42.42,0,0,1,.16.67l-.13.2a.47.47,0,0,1-.67.19,14.4,14.4,0,0,1-7-8.38,14.56,14.56,0,0,1-7.12,8.38.48.48,0,0,1-.68-.19l-.12-.2a.41.41,0,0,1,.16-.67c4.15-2.36,6.77-7,6.77-12.57V63.32a.44.44,0,0,1,.49-.5h.88a.44.44,0,0,1,.5.5v1.52C198.64,70.44,201.25,75.05,205.41,77.41Z" fill="#fff"/><path d="M102.25,86.09c0,.21-.41,2.76-.47,3.26a74.61,74.61,0,0,0-.56,9.27,73.45,73.45,0,0,0,.41,7.67c.06.42.36,2.22.36,2.58,0,.83-.54,1.12-1.43,1.12a1.09,1.09,0,0,1-1.24-1,48.15,48.15,0,0,1-.71-9.63,88.56,88.56,0,0,1,.92-13.47c.15-.69.59-1,1.36-1S102.25,85.32,102.25,86.09Zm12.12.18a1.32,1.32,0,1,1,2.63,0l0,3.94h4.56a1.25,1.25,0,1,1,0,2.49h-4.47l.06,8.14a21.9,21.9,0,0,1,5.15,3.47c.63.56.83.8.83,1.27a1.45,1.45,0,0,1-1.39,1.54c-.44,0-.65-.15-2.16-1.6a25.22,25.22,0,0,0-2.43-1.89v.86c0,1.51,0,5.48-6,5.48-5.19,0-6.31-3.26-6.31-5.07,0-3.05,2.69-5.36,6.63-5.36a11.06,11.06,0,0,1,3.08.42l-.12-7.26h-8a1.25,1.25,0,1,1,0-2.49h7.94Zm.29,16.08a6.94,6.94,0,0,0-3-.62c-2.78,0-4.29,1.33-4.29,3.08,0,1,.53,2.87,3.94,2.87,3.19,0,3.34-2,3.34-3.22Z" fill="#fff"/><path d="M137.41,86.21a1.2,1.2,0,0,1,1.27-1.42A1.18,1.18,0,0,1,140,86.15l0,1.93h8.59A1.17,1.17,0,0,1,150,89.26c0,1.16-1,1.19-1.36,1.19h-8.56l0,3.7h8c.27,0,1.36,0,1.36,1.15a1.15,1.15,0,0,1-1.36,1.16h-8v4.41a29.09,29.09,0,0,1,7,4c1.63,1.22,1.75,1.54,1.75,2.07a1.55,1.55,0,0,1-1.42,1.52c-.33,0-.53-.09-1.63-1.07a22.57,22.57,0,0,0-5.69-3.91v1.33a5.08,5.08,0,0,1-1.74,4.21,7.74,7.74,0,0,1-4.68,1.33c-4.06,0-6.67-2.19-6.67-5.06,0-2.34,1.9-5.45,7.59-5.45a11.36,11.36,0,0,1,2.9.32V96.46h-9.77a1.17,1.17,0,0,1-1.37-1.16c0-1.15,1.07-1.15,1.37-1.15h9.74v-3.7H127.22a1.17,1.17,0,0,1-1.36-1.19c0-1.15,1-1.18,1.36-1.18h10.22Zm.12,16.32a9.09,9.09,0,0,0-3.23-.53c-2.75,0-4.86,1.18-4.86,3.26s2.11,2.78,4.09,2.78c3.91,0,4-2.07,4-3.44Z" fill="#fff"/><path d="M164.81,86.21a1.2,1.2,0,0,1,1.27-1.42,1.18,1.18,0,0,1,1.3,1.36l0,1.93H176a1.16,1.16,0,0,1,1.36,1.18c0,1.16-1,1.19-1.36,1.19h-8.56l0,3.7h8c.27,0,1.36,0,1.36,1.15a1.15,1.15,0,0,1-1.36,1.16h-8v4.41a28.89,28.89,0,0,1,7,4c1.63,1.22,1.75,1.54,1.75,2.07a1.55,1.55,0,0,1-1.42,1.52c-.33,0-.54-.09-1.63-1.07a22.75,22.75,0,0,0-5.69-3.91v1.33a5.05,5.05,0,0,1-1.75,4.21,7.69,7.69,0,0,1-4.68,1.33c-4,0-6.66-2.19-6.66-5.06,0-2.34,1.9-5.45,7.58-5.45a11.51,11.51,0,0,1,2.91.32V96.46h-9.78a1.17,1.17,0,1,1,0-2.31h9.75v-3.7H154.62a1.17,1.17,0,0,1-1.36-1.19c0-1.15,1-1.18,1.36-1.18h10.22Zm.11,16.32a9,9,0,0,0-3.22-.53c-2.76,0-4.86,1.18-4.86,3.26s2.1,2.78,4.09,2.78c3.91,0,4-2.07,4-3.44Z" fill="#fff"/><path d="M185.57,106l2.75.06c4.33,0,7.47-.6,9.75-1.66a7.74,7.74,0,0,0,3.4-11.49c-1.21-1.6-3.2-2.37-5.89-2.37-3.79,0-11.55,1.77-13.77,2.31a2.89,2.89,0,0,1-.74.11c-.8,0-1.25-.71-1.25-1.54,0-1.18.71-1.27,1.93-1.45s6.84-1.18,8-1.36a38.75,38.75,0,0,1,5.92-.59c6.75,0,10,4.06,10,9.24,0,6.28-4.53,8.91-8,10.07a34,34,0,0,1-10.54,1.27,9.89,9.89,0,0,1-1.9-.09,1.31,1.31,0,0,1-.83-1.39C184.38,106.2,185,106,185.57,106Z" fill="#fff"/></g></g></svg>