<svg xmlns="http://www.w3.org/2000/svg" width="31" height="30.93" viewBox="0 0 31 30.93"><g id="b3efb889-7c94-481a-8dc8-ef4486f6195b" data-name="Layer 2"><g id="f370bed7-cc6a-4b77-867e-00c60de53c38" data-name="Layer 1"><path d="M30.86,7a8.47,8.47,0,0,0-8.3-7C17.8,0,13.05,0,8.3,0a8.89,8.89,0,0,0-3,.58A8.41,8.41,0,0,0,0,8.32C.1,13.2,0,18.09,0,23a5.87,5.87,0,0,0,.09,1.11A8.45,8.45,0,0,0,8.2,30.88c4.85.06,9.7.08,14.55,0a8.18,8.18,0,0,0,7-4.05A10.18,10.18,0,0,0,31,23.29V7.5A3.94,3.94,0,0,1,30.86,7ZM28.23,22.07a5.81,5.81,0,0,1-6.1,6.1H8.8a5.81,5.81,0,0,1-6.1-6.1V8.8A5.8,5.8,0,0,1,8.8,2.71H22.13a5.79,5.79,0,0,1,6.1,6.09c0,2.22,0,4.45,0,6.67S28.24,19.87,28.23,22.07Z" fill="#33251f"/><path d="M15.46,7.46a8,8,0,1,0,8,8A8,8,0,0,0,15.46,7.46Zm0,13.2a5.23,5.23,0,1,1,5.24-5.23A5.26,5.26,0,0,1,15.46,20.66Z" fill="#33251f"/><path d="M23.86,5.15a2,2,0,1,0,2,2A2,2,0,0,0,23.86,5.15Z" fill="#33251f"/></g></g></svg>