<svg xmlns="http://www.w3.org/2000/svg" width="41.82" height="44.51" viewBox="0 0 41.82 44.51"><g id="Layer_2" data-name="Layer 2"><g id="Layer_1-2" data-name="Layer 1"><path id="電話.svg" d="M25.39,31.94a2.85,2.85,0,0,0-3.13-.63l-3.37,1.57a2.05,2.05,0,0,1-2.11-.09,19.52,19.52,0,0,1-5.84-6.58,20,20,0,0,1-2.65-8.47,2.17,2.17,0,0,1,1-1.92l3-2.2a3,3,0,0,0,1-3.09L12,4.18A2.84,2.84,0,0,0,9.77,1.71,6.47,6.47,0,0,0,4.6,2.91,10.09,10.09,0,0,0,.3,10.28c-.57,4-.89,10.29,4.38,19.63S15.45,42.12,19.09,43.6a9.59,9.59,0,0,0,8.38-.12,6.67,6.67,0,0,0,3.6-4,2.9,2.9,0,0,0-1-3.19Zm5.7-4.74a1.75,1.75,0,0,1-.81-.18,2,2,0,0,1-.91-2.59,6.61,6.61,0,0,0,.34-3.52A13.45,13.45,0,0,0,28,16.1a13.3,13.3,0,0,0-3.23-3.89,6.31,6.31,0,0,0-3.15-1.46A1.95,1.95,0,0,1,22,6.87a9.94,9.94,0,0,1,5.15,2.26,17.06,17.06,0,0,1,4.2,5,17.75,17.75,0,0,1,2.15,6.24,10.49,10.49,0,0,1-.67,5.7A1.9,1.9,0,0,1,31.09,27.2Zm8-.37a1.88,1.88,0,0,1-.81-.18,2,2,0,0,1-.91-2.59c1.36-3,.61-7.93-1.88-12.34S29.15,4.16,26,3.88a1.94,1.94,0,0,1-1.74-2.1,1.93,1.93,0,0,1,2-1.78h0a13,13,0,0,1,6.8,3,23.27,23.27,0,0,1,5.67,6.78,23.81,23.81,0,0,1,2.9,8.43,13.79,13.79,0,0,1-.87,7.51,1.9,1.9,0,0,1-1.72,1.12Z" fill="#fff" fill-rule="evenodd"/></g></g></svg>