<svg id="ed43f5d5-7485-470f-9cff-d3da3e8279be" data-name="Layer 1" xmlns="http://www.w3.org/2000/svg" width="348.21" height="141.01" viewBox="0 0 348.21 141.01"><line x1="345.86" y1="17.29" x2="345.96" y2="17.29" fill="none" stroke="#fff" stroke-linecap="round" stroke-miterlimit="10" stroke-width="4"/><line x1="338.06" y1="15.69" x2="338.16" y2="15.69" fill="none" stroke="#fff" stroke-linecap="round" stroke-miterlimit="10" stroke-width="4"/><line x1="330.16" y1="14.19" x2="330.26" y2="14.19" fill="none" stroke="#fff" stroke-linecap="round" stroke-miterlimit="10" stroke-width="4"/><line x1="322.26" y1="12.69" x2="322.36" y2="12.69" fill="none" stroke="#fff" stroke-linecap="round" stroke-miterlimit="10" stroke-width="4"/><line x1="314.36" y1="11.4" x2="314.46" y2="11.4" fill="none" stroke="#fff" stroke-linecap="round" stroke-miterlimit="10" stroke-width="4"/><line x1="306.46" y1="10.2" x2="306.56" y2="10.2" fill="none" stroke="#fff" stroke-linecap="round" stroke-miterlimit="10" stroke-width="4"/><line x1="298.56" y1="9" x2="298.66" y2="9" fill="none" stroke="#fff" stroke-linecap="round" stroke-miterlimit="10" stroke-width="4"/><line x1="290.66" y1="7.9" x2="290.76" y2="7.9" fill="none" stroke="#fff" stroke-linecap="round" stroke-miterlimit="10" stroke-width="4"/><line x1="282.66" y1="6.99" x2="282.76" y2="6.99" fill="none" stroke="#fff" stroke-linecap="round" stroke-miterlimit="10" stroke-width="4"/><line x1="274.76" y1="6.1" x2="274.86" y2="6.1" fill="none" stroke="#fff" stroke-linecap="round" stroke-miterlimit="10" stroke-width="4"/><line x1="266.76" y1="5.2" x2="266.86" y2="5.2" fill="none" stroke="#fff" stroke-linecap="round" stroke-miterlimit="10" stroke-width="4"/><line x1="258.86" y1="4.5" x2="258.96" y2="4.5" fill="none" stroke="#fff" stroke-linecap="round" stroke-miterlimit="10" stroke-width="4"/><line x1="250.86" y1="3.9" x2="250.96" y2="3.9" fill="none" stroke="#fff" stroke-linecap="round" stroke-miterlimit="10" stroke-width="4"/><line x1="242.86" y1="3.4" x2="242.96" y2="3.4" fill="none" stroke="#fff" stroke-linecap="round" stroke-miterlimit="10" stroke-width="4"/><line x1="234.86" y1="2.9" x2="234.96" y2="2.9" fill="none" stroke="#fff" stroke-linecap="round" stroke-miterlimit="10" stroke-width="4"/><line x1="226.93" y1="2.59" x2="227.03" y2="2.59" fill="none" stroke="#fff" stroke-linecap="round" stroke-miterlimit="10" stroke-width="4"/><line x1="218.86" y1="2.3" x2="218.96" y2="2.3" fill="none" stroke="#fff" stroke-linecap="round" stroke-miterlimit="10" stroke-width="4"/><line x1="210.86" y1="2.1" x2="210.96" y2="2.1" fill="none" stroke="#fff" stroke-linecap="round" stroke-miterlimit="10" stroke-width="4"/><line x1="202.86" y1="2.1" x2="202.96" y2="2.1" fill="none" stroke="#fff" stroke-linecap="round" stroke-miterlimit="10" stroke-width="4"/><line x1="194.86" y1="2.1" x2="194.96" y2="2.1" fill="none" stroke="#fff" stroke-linecap="round" stroke-miterlimit="10" stroke-width="4"/><line x1="186.86" y1="2.3" x2="186.96" y2="2.3" fill="none" stroke="#fff" stroke-linecap="round" stroke-miterlimit="10" stroke-width="4"/><line x1="178.86" y1="2.6" x2="178.96" y2="2.6" fill="none" stroke="#fff" stroke-linecap="round" stroke-miterlimit="10" stroke-width="4"/><line x1="170.86" y1="3" x2="170.96" y2="3" fill="none" stroke="#fff" stroke-linecap="round" stroke-miterlimit="10" stroke-width="4"/><line x1="162.86" y1="3.6" x2="162.96" y2="3.6" fill="none" stroke="#fff" stroke-linecap="round" stroke-miterlimit="10" stroke-width="4"/><line x1="154.96" y1="4.3" x2="155.06" y2="4.3" fill="none" stroke="#fff" stroke-linecap="round" stroke-miterlimit="10" stroke-width="4"/><line x1="146.96" y1="5.09" x2="147.06" y2="5.09" fill="none" stroke="#fff" stroke-linecap="round" stroke-miterlimit="10" stroke-width="4"/><line x1="139.01" y1="6.09" x2="139.11" y2="6.09" fill="none" stroke="#fff" stroke-linecap="round" stroke-miterlimit="10" stroke-width="4"/><line x1="131.06" y1="7.29" x2="131.16" y2="7.29" fill="none" stroke="#fff" stroke-linecap="round" stroke-miterlimit="10" stroke-width="4"/><line x1="123.16" y1="8.6" x2="123.26" y2="8.6" fill="none" stroke="#fff" stroke-linecap="round" stroke-miterlimit="10" stroke-width="4"/><line x1="115.36" y1="10.2" x2="115.46" y2="10.2" fill="none" stroke="#fff" stroke-linecap="round" stroke-miterlimit="10" stroke-width="4"/><line x1="107.51" y1="11.89" x2="107.61" y2="11.89" fill="none" stroke="#fff" stroke-linecap="round" stroke-miterlimit="10" stroke-width="4"/><line x1="99.76" y1="13.79" x2="99.86" y2="13.79" fill="none" stroke="#fff" stroke-linecap="round" stroke-miterlimit="10" stroke-width="4"/><line x1="92.06" y1="15.99" x2="92.16" y2="15.99" fill="none" stroke="#fff" stroke-linecap="round" stroke-miterlimit="10" stroke-width="4"/><line x1="84.46" y1="18.49" x2="84.56" y2="18.49" fill="none" stroke="#fff" stroke-linecap="round" stroke-miterlimit="10" stroke-width="4"/><line x1="76.96" y1="21.29" x2="77.06" y2="21.29" fill="none" stroke="#fff" stroke-linecap="round" stroke-miterlimit="10" stroke-width="4"/><line x1="69.56" y1="24.29" x2="69.66" y2="24.29" fill="none" stroke="#fff" stroke-linecap="round" stroke-miterlimit="10" stroke-width="4"/><line x1="62.31" y1="27.69" x2="62.41" y2="27.69" fill="none" stroke="#fff" stroke-linecap="round" stroke-miterlimit="10" stroke-width="4"/><line x1="55.26" y1="31.49" x2="55.36" y2="31.49" fill="none" stroke="#fff" stroke-linecap="round" stroke-miterlimit="10" stroke-width="4"/><line x1="48.36" y1="35.6" x2="48.46" y2="35.6" fill="none" stroke="#fff" stroke-linecap="round" stroke-miterlimit="10" stroke-width="4"/><line x1="41.81" y1="40.09" x2="41.91" y2="40.09" fill="none" stroke="#fff" stroke-linecap="round" stroke-miterlimit="10" stroke-width="4"/><line x1="35.56" y1="45.09" x2="35.66" y2="45.09" fill="none" stroke="#fff" stroke-linecap="round" stroke-miterlimit="10" stroke-width="4"/><line x1="29.66" y1="50.49" x2="29.76" y2="50.49" fill="none" stroke="#fff" stroke-linecap="round" stroke-miterlimit="10" stroke-width="4"/><line x1="24.26" y1="56.39" x2="24.36" y2="56.39" fill="none" stroke="#fff" stroke-linecap="round" stroke-miterlimit="10" stroke-width="4"/><line x1="19.36" y1="62.59" x2="19.46" y2="62.59" fill="none" stroke="#fff" stroke-linecap="round" stroke-miterlimit="10" stroke-width="4"/><line x1="14.96" y1="69.3" x2="15.06" y2="69.3" fill="none" stroke="#fff" stroke-linecap="round" stroke-miterlimit="10" stroke-width="4"/><line x1="11.26" y1="76.4" x2="11.36" y2="76.4" fill="none" stroke="#fff" stroke-linecap="round" stroke-miterlimit="10" stroke-width="4"/><line x1="8.16" y1="83.7" x2="8.26" y2="83.7" fill="none" stroke="#fff" stroke-linecap="round" stroke-miterlimit="10" stroke-width="4"/><line x1="5.76" y1="91.39" x2="5.86" y2="91.39" fill="none" stroke="#fff" stroke-linecap="round" stroke-miterlimit="10" stroke-width="4"/><line x1="3.96" y1="99.09" x2="4.06" y2="99.09" fill="none" stroke="#fff" stroke-linecap="round" stroke-miterlimit="10" stroke-width="4"/><line x1="2.86" y1="107" x2="2.96" y2="107" fill="none" stroke="#fff" stroke-linecap="round" stroke-miterlimit="10" stroke-width="4"/><line x1="2.26" y1="114.99" x2="2.36" y2="114.99" fill="none" stroke="#fff" stroke-linecap="round" stroke-miterlimit="10" stroke-width="4"/><line x1="2.26" y1="122.99" x2="2.36" y2="122.99" fill="none" stroke="#fff" stroke-linecap="round" stroke-miterlimit="10" stroke-width="4"/><line x1="2.76" y1="130.99" x2="2.86" y2="130.99" fill="none" stroke="#fff" stroke-linecap="round" stroke-miterlimit="10" stroke-width="4"/><line x1="3.66" y1="138.9" x2="3.76" y2="138.9" fill="none" stroke="#fff" stroke-linecap="round" stroke-miterlimit="10" stroke-width="4"/></svg>