<svg xmlns="http://www.w3.org/2000/svg" width="506.719" height="10.5" viewBox="0 0 506.719 10.5">
  <defs>
    <style>
      .cls-1 {
        fill: #29a0ac;
        fill-rule: evenodd;
      }
    </style>
  </defs>
  <path id="シェイプ_577_のコピー" data-name="シェイプ 577 のコピー" class="cls-1" d="M101.453,7695.87a0.976,0.976,0,0,1-.678-0.27,0.927,0.927,0,0,1,0-1.33l8.821-8.63a0.968,0.968,0,0,1,1.357,0,0.927,0.927,0,0,1,0,1.33l-8.821,8.63A0.978,0.978,0,0,1,101.453,7695.87Zm10.782,0a0.976,0.976,0,0,1-.678-0.27,0.927,0.927,0,0,1,0-1.33l8.821-8.63a0.968,0.968,0,0,1,1.357,0,0.927,0.927,0,0,1,0,1.33l-8.821,8.63A0.978,0.978,0,0,1,112.235,7695.87Zm10.782,0a0.978,0.978,0,0,1-.679-0.27,0.929,0.929,0,0,1,0-1.33l8.822-8.63a0.968,0.968,0,0,1,1.357,0,0.927,0.927,0,0,1,0,1.33l-8.822,8.63A0.974,0.974,0,0,1,123.017,7695.87Zm10.782,0a0.976,0.976,0,0,1-.678-0.27,0.927,0.927,0,0,1,0-1.33l8.821-8.63a0.968,0.968,0,0,1,1.357,0,0.927,0.927,0,0,1,0,1.33l-8.821,8.63A0.978,0.978,0,0,1,133.8,7695.87Zm10.782,0a0.976,0.976,0,0,1-.678-0.27,0.927,0.927,0,0,1,0-1.33l8.821-8.63a0.968,0.968,0,0,1,1.357,0,0.927,0.927,0,0,1,0,1.33l-8.822,8.63A0.974,0.974,0,0,1,144.581,7695.87Zm10.782,0a0.976,0.976,0,0,1-.678-0.27,0.927,0.927,0,0,1,0-1.33l8.821-8.63a0.968,0.968,0,0,1,1.357,0,0.927,0.927,0,0,1,0,1.33l-8.821,8.63A0.978,0.978,0,0,1,155.363,7695.87Zm10.782,0a0.976,0.976,0,0,1-.678-0.27,0.927,0.927,0,0,1,0-1.33l8.821-8.63a0.968,0.968,0,0,1,1.357,0,0.927,0.927,0,0,1,0,1.33l-8.821,8.63A0.978,0.978,0,0,1,166.145,7695.87Zm10.782,0a0.978,0.978,0,0,1-.679-0.27,0.929,0.929,0,0,1,0-1.33l8.822-8.63a0.968,0.968,0,0,1,1.357,0,0.927,0.927,0,0,1,0,1.33l-8.822,8.63A0.974,0.974,0,0,1,176.927,7695.87Zm10.782,0a0.976,0.976,0,0,1-.678-0.27,0.927,0.927,0,0,1,0-1.33l8.821-8.63a0.968,0.968,0,0,1,1.357,0,0.927,0.927,0,0,1,0,1.33l-8.821,8.63A0.978,0.978,0,0,1,187.709,7695.87Zm10.782,0a0.974,0.974,0,0,1-.678-0.27,0.927,0.927,0,0,1,0-1.33l8.821-8.63a0.968,0.968,0,0,1,1.357,0,0.927,0.927,0,0,1,0,1.33l-8.821,8.63A0.978,0.978,0,0,1,198.491,7695.87Zm10.782,0a0.978,0.978,0,0,1-.679-0.27,0.929,0.929,0,0,1,0-1.33l8.822-8.63a0.968,0.968,0,0,1,1.357,0,0.927,0.927,0,0,1,0,1.33l-8.822,8.63A0.976,0.976,0,0,1,209.273,7695.87Zm10.782,0a0.976,0.976,0,0,1-.678-0.27,0.927,0.927,0,0,1,0-1.33l8.821-8.63a0.968,0.968,0,0,1,1.357,0,0.927,0.927,0,0,1,0,1.33l-8.821,8.63A0.978,0.978,0,0,1,220.055,7695.87Zm10.782,0a0.976,0.976,0,0,1-.678-0.27,0.927,0.927,0,0,1,0-1.33l8.821-8.63a0.968,0.968,0,0,1,1.357,0,0.927,0.927,0,0,1,0,1.33l-8.821,8.63A0.978,0.978,0,0,1,230.837,7695.87Zm10.782,0a0.978,0.978,0,0,1-.679-0.27,0.929,0.929,0,0,1,0-1.33l8.822-8.63a0.968,0.968,0,0,1,1.357,0,0.927,0.927,0,0,1,0,1.33l-8.822,8.63A0.976,0.976,0,0,1,241.619,7695.87Zm10.782,0a0.976,0.976,0,0,1-.678-0.27,0.927,0.927,0,0,1,0-1.33l8.821-8.63a0.968,0.968,0,0,1,1.357,0,0.927,0.927,0,0,1,0,1.33l-8.821,8.63A0.978,0.978,0,0,1,252.4,7695.87Zm10.782,0a0.978,0.978,0,0,1-.679-0.27,0.929,0.929,0,0,1,0-1.33l8.822-8.63a0.968,0.968,0,0,1,1.357,0,0.927,0.927,0,0,1,0,1.33l-8.821,8.63A0.978,0.978,0,0,1,263.183,7695.87Zm10.782,0a0.978,0.978,0,0,1-.679-0.27,0.927,0.927,0,0,1,0-1.33l8.822-8.63a0.968,0.968,0,0,1,1.357,0,0.927,0.927,0,0,1,0,1.33l-8.822,8.63A0.976,0.976,0,0,1,273.965,7695.87Zm10.782,0a0.976,0.976,0,0,1-.678-0.27,0.927,0.927,0,0,1,0-1.33l8.821-8.63a0.968,0.968,0,0,1,1.357,0,0.927,0.927,0,0,1,0,1.33l-8.821,8.63A0.978,0.978,0,0,1,284.747,7695.87Zm10.782,0a0.974,0.974,0,0,1-.678-0.27,0.927,0.927,0,0,1,0-1.33l8.821-8.63a0.968,0.968,0,0,1,1.357,0,0.927,0.927,0,0,1,0,1.33l-8.822,8.63A0.976,0.976,0,0,1,295.529,7695.87Zm10.782,0a0.976,0.976,0,0,1-.678-0.27,0.927,0.927,0,0,1,0-1.33l8.821-8.63a0.968,0.968,0,0,1,1.357,0,0.927,0.927,0,0,1,0,1.33l-8.821,8.63A0.978,0.978,0,0,1,306.311,7695.87Zm10.782,0a0.978,0.978,0,0,1-.679-0.27,0.929,0.929,0,0,1,0-1.33l8.822-8.63a0.968,0.968,0,0,1,1.357,0,0.927,0.927,0,0,1,0,1.33l-8.822,8.63A0.974,0.974,0,0,1,317.093,7695.87Zm10.782,0a0.978,0.978,0,0,1-.679-0.27,0.927,0.927,0,0,1,0-1.33l8.822-8.63a0.968,0.968,0,0,1,1.357,0,0.929,0.929,0,0,1,0,1.33l-8.822,8.63A0.976,0.976,0,0,1,327.875,7695.87Zm10.782,0a0.974,0.974,0,0,1-.678-0.27,0.927,0.927,0,0,1,0-1.33l8.821-8.63a0.968,0.968,0,0,1,1.357,0,0.927,0.927,0,0,1,0,1.33l-8.821,8.63A0.978,0.978,0,0,1,338.657,7695.87Zm10.782,0a0.978,0.978,0,0,1-.679-0.27,0.929,0.929,0,0,1,0-1.33l8.822-8.63a0.968,0.968,0,0,1,1.357,0,0.927,0.927,0,0,1,0,1.33l-8.822,8.63A0.976,0.976,0,0,1,349.439,7695.87Zm10.782,0a0.978,0.978,0,0,1-.679-0.27,0.927,0.927,0,0,1,0-1.33l8.822-8.63a0.968,0.968,0,0,1,1.357,0,0.929,0.929,0,0,1,0,1.33l-8.822,8.63A0.976,0.976,0,0,1,360.221,7695.87Zm10.782,0a0.976,0.976,0,0,1-.678-0.27,0.927,0.927,0,0,1,0-1.33l8.821-8.63a0.968,0.968,0,0,1,1.357,0,0.927,0.927,0,0,1,0,1.33l-8.821,8.63A0.978,0.978,0,0,1,371,7695.87Zm10.782,0a0.978,0.978,0,0,1-.679-0.27,0.929,0.929,0,0,1,0-1.33l8.822-8.63a0.968,0.968,0,0,1,1.357,0,0.927,0.927,0,0,1,0,1.33l-8.822,8.63A0.976,0.976,0,0,1,381.785,7695.87Zm10.782,0a0.978,0.978,0,0,1-.679-0.27,0.927,0.927,0,0,1,0-1.33l8.822-8.63a0.968,0.968,0,0,1,1.357,0,0.929,0.929,0,0,1,0,1.33l-8.822,8.63A0.976,0.976,0,0,1,392.567,7695.87Zm10.782,0a0.978,0.978,0,0,1-.679-0.27,0.929,0.929,0,0,1,0-1.33l8.822-8.63a0.968,0.968,0,0,1,1.357,0,0.927,0.927,0,0,1,0,1.33l-8.821,8.63A0.978,0.978,0,0,1,403.349,7695.87Zm10.782,0a0.978,0.978,0,0,1-.679-0.27,0.927,0.927,0,0,1,0-1.33l8.822-8.63a0.968,0.968,0,0,1,1.357,0,0.929,0.929,0,0,1,0,1.33l-8.822,8.63A0.976,0.976,0,0,1,414.131,7695.87Zm10.782,0a0.978,0.978,0,0,1-.679-0.27,0.927,0.927,0,0,1,0-1.33l8.822-8.63a0.967,0.967,0,0,1,1.356,0,0.927,0.927,0,0,1,0,1.33l-8.821,8.63A0.976,0.976,0,0,1,424.913,7695.87Zm10.782,0a0.978,0.978,0,0,1-.679-0.27,0.929,0.929,0,0,1,0-1.33l8.822-8.63a0.968,0.968,0,0,1,1.357,0,0.927,0.927,0,0,1,0,1.33l-8.822,8.63A0.976,0.976,0,0,1,435.7,7695.87Zm10.782,0a0.978,0.978,0,0,1-.679-0.27,0.927,0.927,0,0,1,0-1.33l8.821-8.63a0.969,0.969,0,0,1,1.358,0,0.929,0.929,0,0,1,0,1.33l-8.822,8.63A0.976,0.976,0,0,1,446.477,7695.87Zm10.782,0a0.976,0.976,0,0,1-.678-0.27,0.927,0.927,0,0,1,0-1.33l8.821-8.63a0.968,0.968,0,0,1,1.357,0,0.927,0.927,0,0,1,0,1.33l-8.821,8.63A0.978,0.978,0,0,1,457.259,7695.87Zm10.782,0a0.978,0.978,0,0,1-.679-0.27,0.929,0.929,0,0,1,0-1.33l8.822-8.63a0.968,0.968,0,0,1,1.357,0,0.929,0.929,0,0,1,0,1.33l-8.822,8.63A0.976,0.976,0,0,1,468.041,7695.87Zm10.782,0a0.978,0.978,0,0,1-.679-0.27,0.927,0.927,0,0,1,0-1.33l8.822-8.63a0.967,0.967,0,0,1,1.356,0,0.927,0.927,0,0,1,0,1.33l-8.821,8.63A0.976,0.976,0,0,1,478.823,7695.87Zm10.782,0a0.977,0.977,0,0,1-.679-0.27,0.927,0.927,0,0,1,0-1.33l8.821-8.63a0.968,0.968,0,0,1,1.357,0,0.927,0.927,0,0,1,0,1.33l-8.821,8.63A0.976,0.976,0,0,1,489.605,7695.87Zm10.781,0a0.976,0.976,0,0,1-.678-0.27,0.927,0.927,0,0,1,0-1.33l8.821-8.63a0.968,0.968,0,0,1,1.357,0,0.927,0.927,0,0,1,0,1.33l-8.821,8.63A0.978,0.978,0,0,1,500.386,7695.87Zm10.783,0a0.976,0.976,0,0,1-.678-0.27,0.927,0.927,0,0,1,0-1.33l8.821-8.63a0.968,0.968,0,0,1,1.357,0,0.927,0.927,0,0,1,0,1.33l-8.821,8.63A0.978,0.978,0,0,1,511.169,7695.87Zm10.782,0a0.978,0.978,0,0,1-.679-0.27,0.929,0.929,0,0,1,0-1.33l8.822-8.63a0.968,0.968,0,0,1,1.357,0,0.927,0.927,0,0,1,0,1.33l-8.822,8.63A0.976,0.976,0,0,1,521.951,7695.87Zm10.782,0a0.978,0.978,0,0,1-.679-0.27,0.927,0.927,0,0,1,0-1.33l8.822-8.63a0.968,0.968,0,0,1,1.357,0,0.929,0.929,0,0,1,0,1.33l-8.822,8.63A0.976,0.976,0,0,1,532.733,7695.87Zm10.782,0a0.977,0.977,0,0,1-.679-0.27,0.927,0.927,0,0,1,0-1.33l8.821-8.63a0.968,0.968,0,0,1,1.357,0,0.927,0.927,0,0,1,0,1.33l-8.821,8.63A0.976,0.976,0,0,1,543.515,7695.87Zm10.781,0a0.976,0.976,0,0,1-.678-0.27,0.927,0.927,0,0,1,0-1.33l8.821-8.63a0.968,0.968,0,0,1,1.357,0,0.927,0.927,0,0,1,0,1.33l-8.821,8.63A0.978,0.978,0,0,1,554.3,7695.87Zm10.783,0a0.976,0.976,0,0,1-.678-0.27,0.927,0.927,0,0,1,0-1.33l8.821-8.63a0.968,0.968,0,0,1,1.357,0,0.927,0.927,0,0,1,0,1.33l-8.821,8.63A0.978,0.978,0,0,1,565.079,7695.87Zm10.782,0a0.978,0.978,0,0,1-.679-0.27,0.929,0.929,0,0,1,0-1.33l8.822-8.63a0.968,0.968,0,0,1,1.357,0,0.927,0.927,0,0,1,0,1.33l-8.822,8.63A0.976,0.976,0,0,1,575.861,7695.87Zm10.782,0a0.978,0.978,0,0,1-.679-0.27,0.927,0.927,0,0,1,0-1.33l8.822-8.63a0.968,0.968,0,0,1,1.357,0,0.929,0.929,0,0,1,0,1.33l-8.822,8.63A0.976,0.976,0,0,1,586.643,7695.87Zm10.781,0a0.978,0.978,0,0,1-.678-0.27,0.927,0.927,0,0,1,0-1.33l8.821-8.63a0.968,0.968,0,0,1,1.357,0,0.927,0.927,0,0,1,0,1.33l-8.821,8.63A0.977,0.977,0,0,1,597.424,7695.87Z" transform="translate(-100.5 -7685.38)"/>
</svg>
