<?xml version="1.0" encoding="utf-8"?>
<!-- Generator: Adobe Illustrator 25.4.1, SVG Export Plug-In . SVG Version: 6.00 Build 0)  -->
<svg version="1.1" id="Layer_1" xmlns="http://www.w3.org/2000/svg" xmlns:xlink="http://www.w3.org/1999/xlink" x="0px" y="0px"
	 viewBox="0 0 331.1 175.4" style="enable-background:new 0 0 331.1 175.4;" xml:space="preserve">
<style type="text/css">
	.st0{stroke:#FFFFFF;stroke-width:4;stroke-linecap:round;}
</style>
<g>
	<line class="st0" x1="1.9" y1="2" x2="2" y2="2"/>
	<line class="st0" x1="9.9" y1="2" x2="10" y2="2"/>
	<line class="st0" x1="17.9" y1="2.1" x2="17.9" y2="2.1"/>
	<line class="st0" x1="26" y1="2.2" x2="26" y2="2.2"/>
	<line class="st0" x1="34" y1="2.3" x2="34" y2="2.3"/>
	<line class="st0" x1="41.9" y1="2.4" x2="41.9" y2="2.4"/>
	<line class="st0" x1="50" y1="2.5" x2="50" y2="2.5"/>
	<line class="st0" x1="58" y1="2.7" x2="58" y2="2.7"/>
	<line class="st0" x1="65.9" y1="2.9" x2="65.9" y2="2.9"/>
	<line class="st0" x1="73.9" y1="3.1" x2="73.9" y2="3.1"/>
	<line class="st0" x1="82" y1="3.3" x2="82" y2="3.3"/>
	<line class="st0" x1="89.9" y1="3.6" x2="89.9" y2="3.6"/>
	<line class="st0" x1="97.9" y1="3.9" x2="97.9" y2="3.9"/>
	<line class="st0" x1="106" y1="4.1" x2="106" y2="4.1"/>
	<line class="st0" x1="113.9" y1="4.5" x2="113.9" y2="4.5"/>
	<line class="st0" x1="121.9" y1="4.9" x2="121.9" y2="4.9"/>
	<line class="st0" x1="129.9" y1="5.4" x2="129.9" y2="5.4"/>
	<line class="st0" x1="137.9" y1="5.9" x2="137.9" y2="5.9"/>
	<line class="st0" x1="145.8" y1="6.5" x2="145.9" y2="6.5"/>
	<line class="st0" x1="153.8" y1="7.1" x2="153.8" y2="7.1"/>
	<line class="st0" x1="161.8" y1="7.8" x2="161.8" y2="7.8"/>
	<line class="st0" x1="169.8" y1="8.6" x2="169.8" y2="8.6"/>
	<line class="st0" x1="177.7" y1="9.4" x2="177.7" y2="9.4"/>
	<line class="st0" x1="185.7" y1="10.4" x2="185.7" y2="10.4"/>
	<line class="st0" x1="193.6" y1="11.4" x2="193.6" y2="11.4"/>
	<line class="st0" x1="201.5" y1="12.6" x2="201.5" y2="12.6"/>
	<line class="st0" x1="209.4" y1="13.9" x2="209.4" y2="13.9"/>
	<line class="st0" x1="217.3" y1="15.4" x2="217.3" y2="15.4"/>
	<line class="st0" x1="225.1" y1="16.9" x2="225.1" y2="16.9"/>
	<line class="st0" x1="232.9" y1="18.7" x2="232.9" y2="18.7"/>
	<line class="st0" x1="240.6" y1="20.7" x2="240.7" y2="20.7"/>
	<line class="st0" x1="248.3" y1="22.9" x2="248.3" y2="22.9"/>
	<line class="st0" x1="256" y1="25.4" x2="256" y2="25.4"/>
	<line class="st0" x1="263.4" y1="28.1" x2="263.5" y2="28.1"/>
	<line class="st0" x1="270.8" y1="31.2" x2="270.9" y2="31.2"/>
	<line class="st0" x1="278" y1="34.7" x2="278.1" y2="34.7"/>
	<line class="st0" x1="285" y1="38.5" x2="285.1" y2="38.5"/>
	<line class="st0" x1="291.8" y1="42.8" x2="291.8" y2="42.8"/>
	<line class="st0" x1="298.1" y1="47.6" x2="298.2" y2="47.6"/>
	<line class="st0" x1="304.1" y1="52.9" x2="304.1" y2="52.9"/>
	<line class="st0" x1="309.6" y1="58.7" x2="309.6" y2="58.7"/>
	<line class="st0" x1="314.5" y1="65" x2="314.5" y2="65"/>
	<line class="st0" x1="318.7" y1="71.8" x2="318.7" y2="71.8"/>
	<line class="st0" x1="322.3" y1="78.9" x2="322.3" y2="78.9"/>
	<line class="st0" x1="325.3" y1="86.4" x2="325.3" y2="86.4"/>
	<line class="st0" x1="327.4" y1="94.1" x2="327.4" y2="94.1"/>
	<line class="st0" x1="328.7" y1="102" x2="328.7" y2="102"/>
	<line class="st0" x1="329.2" y1="109.9" x2="329.2" y2="109.9"/>
	<line class="st0" x1="328.5" y1="117.9" x2="328.5" y2="117.9"/>
	<line class="st0" x1="327" y1="125.8" x2="327" y2="125.8"/>
	<line class="st0" x1="324.6" y1="133.4" x2="324.6" y2="133.4"/>
	<line class="st0" x1="321.3" y1="140.7" x2="321.3" y2="140.7"/>
	<line class="st0" x1="317.2" y1="147.6" x2="317.2" y2="147.6"/>
	<line class="st0" x1="312.4" y1="154" x2="312.4" y2="154"/>
	<line class="st0" x1="307" y1="159.8" x2="307" y2="159.8"/>
	<line class="st0" x1="300.9" y1="165.1" x2="301" y2="165.1"/>
	<line class="st0" x1="294.4" y1="169.6" x2="294.4" y2="169.6"/>
	<line class="st0" x1="287.3" y1="173.4" x2="287.4" y2="173.4"/>
</g>
</svg>
