<svg xmlns="http://www.w3.org/2000/svg" width="236.55" height="197.59" viewBox="0 0 236.55 197.59"><g id="Layer_2" data-name="Layer 2"><g id="Layer_1-2" data-name="Layer 1"><line x1="2" y1="2" x2="2" y2="2" fill="#fff" stroke="#fff" stroke-linecap="round" stroke-width="4"/><line x1="10" y1="2.08" x2="10" y2="2.08" fill="#fff" stroke="#fff" stroke-linecap="round" stroke-width="4"/><line x1="18" y1="2.3" x2="18" y2="2.3" fill="#fff" stroke="#fff" stroke-linecap="round" stroke-width="4"/><line x1="26" y1="2.68" x2="26" y2="2.68" fill="#fff" stroke="#fff" stroke-linecap="round" stroke-width="4"/><line x1="34" y1="3.21" x2="34" y2="3.21" fill="#fff" stroke="#fff" stroke-linecap="round" stroke-width="4"/><line x1="41.99" y1="3.89" x2="41.99" y2="3.89" fill="#fff" stroke="#fff" stroke-linecap="round" stroke-width="4"/><line x1="49.97" y1="4.73" x2="49.97" y2="4.73" fill="#fff" stroke="#fff" stroke-linecap="round" stroke-width="4"/><line x1="57.91" y1="5.71" x2="57.91" y2="5.71" fill="#fff" stroke="#fff" stroke-linecap="round" stroke-width="4"/><line x1="65.83" y1="6.85" x2="65.83" y2="6.85" fill="#fff" stroke="#fff" stroke-linecap="round" stroke-width="4"/><line x1="73.73" y1="8.14" x2="73.73" y2="8.14" fill="#fff" stroke="#fff" stroke-linecap="round" stroke-width="4"/><line x1="81.61" y1="9.59" x2="81.61" y2="9.59" fill="#fff" stroke="#fff" stroke-linecap="round" stroke-width="4"/><line x1="89.44" y1="11.2" x2="89.44" y2="11.2" fill="#fff" stroke="#fff" stroke-linecap="round" stroke-width="4"/><line x1="97.24" y1="12.98" x2="97.24" y2="12.98" fill="#fff" stroke="#fff" stroke-linecap="round" stroke-width="4"/><line x1="105.01" y1="14.93" x2="105.01" y2="14.93" fill="#fff" stroke="#fff" stroke-linecap="round" stroke-width="4"/><line x1="112.72" y1="17.06" x2="112.72" y2="17.06" fill="#fff" stroke="#fff" stroke-linecap="round" stroke-width="4"/><line x1="120.38" y1="19.37" x2="120.38" y2="19.37" fill="#fff" stroke="#fff" stroke-linecap="round" stroke-width="4"/><line x1="127.99" y1="21.86" x2="127.99" y2="21.86" fill="#fff" stroke="#fff" stroke-linecap="round" stroke-width="4"/><line x1="135.52" y1="24.56" x2="135.52" y2="24.56" fill="#fff" stroke="#fff" stroke-linecap="round" stroke-width="4"/><line x1="142.98" y1="27.46" x2="142.98" y2="27.46" fill="#fff" stroke="#fff" stroke-linecap="round" stroke-width="4"/><line x1="150.35" y1="30.58" x2="150.35" y2="30.58" fill="#fff" stroke="#fff" stroke-linecap="round" stroke-width="4"/><line x1="157.62" y1="33.93" x2="157.62" y2="33.93" fill="#fff" stroke="#fff" stroke-linecap="round" stroke-width="4"/><line x1="164.77" y1="37.51" x2="164.77" y2="37.51" fill="#fff" stroke="#fff" stroke-linecap="round" stroke-width="4"/><line x1="171.79" y1="41.35" x2="171.79" y2="41.35" fill="#fff" stroke="#fff" stroke-linecap="round" stroke-width="4"/><line x1="178.65" y1="45.47" x2="178.65" y2="45.47" fill="#fff" stroke="#fff" stroke-linecap="round" stroke-width="4"/><line x1="185.33" y1="49.86" x2="185.33" y2="49.86" fill="#fff" stroke="#fff" stroke-linecap="round" stroke-width="4"/><line x1="191.8" y1="54.57" x2="191.8" y2="54.57" fill="#fff" stroke="#fff" stroke-linecap="round" stroke-width="4"/><line x1="198.02" y1="59.59" x2="198.02" y2="59.59" fill="#fff" stroke="#fff" stroke-linecap="round" stroke-width="4"/><line x1="203.96" y1="64.94" x2="203.96" y2="64.94" fill="#fff" stroke="#fff" stroke-linecap="round" stroke-width="4"/><line x1="209.55" y1="70.66" x2="209.55" y2="70.66" fill="#fff" stroke="#fff" stroke-linecap="round" stroke-width="4"/><line x1="214.75" y1="76.73" x2="214.75" y2="76.73" fill="#fff" stroke="#fff" stroke-linecap="round" stroke-width="4"/><line x1="219.48" y1="83.16" x2="219.48" y2="83.16" fill="#fff" stroke="#fff" stroke-linecap="round" stroke-width="4"/><line x1="223.68" y1="89.95" x2="223.68" y2="89.95" fill="#fff" stroke="#fff" stroke-linecap="round" stroke-width="4"/><line x1="227.27" y1="97.08" x2="227.27" y2="97.08" fill="#fff" stroke="#fff" stroke-linecap="round" stroke-width="4"/><line x1="230.2" y1="104.5" x2="230.2" y2="104.5" fill="#fff" stroke="#fff" stroke-linecap="round" stroke-width="4"/><line x1="232.41" y1="112.17" x2="232.41" y2="112.17" fill="#fff" stroke="#fff" stroke-linecap="round" stroke-width="4"/><line x1="233.86" y1="120.01" x2="233.86" y2="120.01" fill="#fff" stroke="#fff" stroke-linecap="round" stroke-width="4"/><line x1="234.55" y1="127.96" x2="234.55" y2="127.96" fill="#fff" stroke="#fff" stroke-linecap="round" stroke-width="4"/><line x1="234.48" y1="135.96" x2="234.48" y2="135.96" fill="#fff" stroke="#fff" stroke-linecap="round" stroke-width="4"/><line x1="233.71" y1="143.92" x2="233.71" y2="143.92" fill="#fff" stroke="#fff" stroke-linecap="round" stroke-width="4"/><line x1="232.27" y1="151.78" x2="232.27" y2="151.78" fill="#fff" stroke="#fff" stroke-linecap="round" stroke-width="4"/><line x1="230.24" y1="159.52" x2="230.24" y2="159.52" fill="#fff" stroke="#fff" stroke-linecap="round" stroke-width="4"/><line x1="227.68" y1="167.09" x2="227.68" y2="167.09" fill="#fff" stroke="#fff" stroke-linecap="round" stroke-width="4"/><line x1="224.65" y1="174.49" x2="224.65" y2="174.49" fill="#fff" stroke="#fff" stroke-linecap="round" stroke-width="4"/><line x1="221.2" y1="181.71" x2="221.2" y2="181.71" fill="#fff" stroke="#fff" stroke-linecap="round" stroke-width="4"/><line x1="217.38" y1="188.74" x2="217.38" y2="188.74" fill="#fff" stroke="#fff" stroke-linecap="round" stroke-width="4"/><line x1="213.26" y1="195.59" x2="213.26" y2="195.59" fill="#fff" stroke="#fff" stroke-linecap="round" stroke-width="4"/></g></g></svg>