<svg id="f7b9cd4d-fe25-49aa-8791-2f00cbb7633d" data-name="Layer 1" xmlns="http://www.w3.org/2000/svg" width="334.94" height="177.62" viewBox="0 0 334.94 177.62"><line x1="3.77" y1="3.11" x2="3.87" y2="3.11" fill="none" stroke="#fff" stroke-linecap="round" stroke-miterlimit="10" stroke-width="4"/><line x1="11.77" y1="3.1" x2="11.87" y2="3.1" fill="none" stroke="#fff" stroke-linecap="round" stroke-miterlimit="10" stroke-width="4"/><line x1="19.77" y1="3.24" x2="19.87" y2="3.24" fill="none" stroke="#fff" stroke-linecap="round" stroke-miterlimit="10" stroke-width="4"/><line x1="27.87" y1="3.33" x2="27.97" y2="3.33" fill="none" stroke="#fff" stroke-linecap="round" stroke-miterlimit="10" stroke-width="4"/><line x1="35.87" y1="3.4" x2="35.97" y2="3.4" fill="none" stroke="#fff" stroke-linecap="round" stroke-miterlimit="10" stroke-width="4"/><line x1="43.77" y1="3.54" x2="43.87" y2="3.54" fill="none" stroke="#fff" stroke-linecap="round" stroke-miterlimit="10" stroke-width="4"/><line x1="51.87" y1="3.6" x2="51.97" y2="3.6" fill="none" stroke="#fff" stroke-linecap="round" stroke-miterlimit="10" stroke-width="4"/><line x1="59.87" y1="3.81" x2="59.97" y2="3.81" fill="none" stroke="#fff" stroke-linecap="round" stroke-miterlimit="10" stroke-width="4"/><line x1="67.77" y1="4.03" x2="67.87" y2="4.03" fill="none" stroke="#fff" stroke-linecap="round" stroke-miterlimit="10" stroke-width="4"/><line x1="75.77" y1="4.22" x2="75.87" y2="4.22" fill="none" stroke="#fff" stroke-linecap="round" stroke-miterlimit="10" stroke-width="4"/><line x1="83.87" y1="4.42" x2="83.97" y2="4.42" fill="none" stroke="#fff" stroke-linecap="round" stroke-miterlimit="10" stroke-width="4"/><line x1="91.77" y1="4.72" x2="91.87" y2="4.72" fill="none" stroke="#fff" stroke-linecap="round" stroke-miterlimit="10" stroke-width="4"/><line x1="99.77" y1="5" x2="99.87" y2="5" fill="none" stroke="#fff" stroke-linecap="round" stroke-miterlimit="10" stroke-width="4"/><line x1="107.87" y1="5.22" x2="107.97" y2="5.22" fill="none" stroke="#fff" stroke-linecap="round" stroke-miterlimit="10" stroke-width="4"/><line x1="115.77" y1="5.63" x2="115.87" y2="5.63" fill="none" stroke="#fff" stroke-linecap="round" stroke-miterlimit="10" stroke-width="4"/><line x1="123.77" y1="6.03" x2="123.87" y2="6.03" fill="none" stroke="#fff" stroke-linecap="round" stroke-miterlimit="10" stroke-width="4"/><line x1="131.77" y1="6.52" x2="131.87" y2="6.52" fill="none" stroke="#fff" stroke-linecap="round" stroke-miterlimit="10" stroke-width="4"/><line x1="139.77" y1="7" x2="139.87" y2="7" fill="none" stroke="#fff" stroke-linecap="round" stroke-miterlimit="10" stroke-width="4"/><line x1="147.67" y1="7.61" x2="147.77" y2="7.61" fill="none" stroke="#fff" stroke-linecap="round" stroke-miterlimit="10" stroke-width="4"/><line x1="155.67" y1="8.22" x2="155.77" y2="8.22" fill="none" stroke="#fff" stroke-linecap="round" stroke-miterlimit="10" stroke-width="4"/><line x1="163.67" y1="8.9" x2="163.77" y2="8.9" fill="none" stroke="#fff" stroke-linecap="round" stroke-miterlimit="10" stroke-width="4"/><line x1="171.67" y1="9.73" x2="171.77" y2="9.73" fill="none" stroke="#fff" stroke-linecap="round" stroke-miterlimit="10" stroke-width="4"/><line x1="179.57" y1="10.53" x2="179.67" y2="10.53" fill="none" stroke="#fff" stroke-linecap="round" stroke-miterlimit="10" stroke-width="4"/><line x1="187.57" y1="11.52" x2="187.67" y2="11.52" fill="none" stroke="#fff" stroke-linecap="round" stroke-miterlimit="10" stroke-width="4"/><line x1="195.47" y1="12.49" x2="195.57" y2="12.49" fill="none" stroke="#fff" stroke-linecap="round" stroke-miterlimit="10" stroke-width="4"/><line x1="203.37" y1="13.7" x2="203.47" y2="13.7" fill="none" stroke="#fff" stroke-linecap="round" stroke-miterlimit="10" stroke-width="4"/><line x1="211.27" y1="15" x2="211.37" y2="15" fill="none" stroke="#fff" stroke-linecap="round" stroke-miterlimit="10" stroke-width="4"/><line x1="219.17" y1="16.5" x2="219.27" y2="16.5" fill="none" stroke="#fff" stroke-linecap="round" stroke-miterlimit="10" stroke-width="4"/><line x1="226.97" y1="18.02" x2="227.07" y2="18.02" fill="none" stroke="#fff" stroke-linecap="round" stroke-miterlimit="10" stroke-width="4"/><line x1="234.77" y1="19.83" x2="234.87" y2="19.83" fill="none" stroke="#fff" stroke-linecap="round" stroke-miterlimit="10" stroke-width="4"/><line x1="242.47" y1="21.81" x2="242.57" y2="21.81" fill="none" stroke="#fff" stroke-linecap="round" stroke-miterlimit="10" stroke-width="4"/><line x1="250.17" y1="24.04" x2="250.27" y2="24.04" fill="none" stroke="#fff" stroke-linecap="round" stroke-miterlimit="10" stroke-width="4"/><line x1="257.87" y1="26.54" x2="257.97" y2="26.54" fill="none" stroke="#fff" stroke-linecap="round" stroke-miterlimit="10" stroke-width="4"/><line x1="265.27" y1="29.2" x2="265.37" y2="29.2" fill="none" stroke="#fff" stroke-linecap="round" stroke-miterlimit="10" stroke-width="4"/><line x1="272.66" y1="32.3" x2="272.76" y2="32.3" fill="none" stroke="#fff" stroke-linecap="round" stroke-miterlimit="10" stroke-width="4"/><line x1="279.91" y1="35.81" x2="280.01" y2="35.81" fill="none" stroke="#fff" stroke-linecap="round" stroke-miterlimit="10" stroke-width="4"/><line x1="286.92" y1="39.61" x2="287.02" y2="39.61" fill="none" stroke="#fff" stroke-linecap="round" stroke-miterlimit="10" stroke-width="4"/><line x1="293.67" y1="43.92" x2="293.77" y2="43.92" fill="none" stroke="#fff" stroke-linecap="round" stroke-miterlimit="10" stroke-width="4"/><line x1="299.96" y1="48.72" x2="300.06" y2="48.72" fill="none" stroke="#fff" stroke-linecap="round" stroke-miterlimit="10" stroke-width="4"/><line x1="305.97" y1="54" x2="306.07" y2="54" fill="none" stroke="#fff" stroke-linecap="round" stroke-miterlimit="10" stroke-width="4"/><line x1="311.47" y1="59.8" x2="311.57" y2="59.8" fill="none" stroke="#fff" stroke-linecap="round" stroke-miterlimit="10" stroke-width="4"/><line x1="316.37" y1="66.1" x2="316.47" y2="66.1" fill="none" stroke="#fff" stroke-linecap="round" stroke-miterlimit="10" stroke-width="4"/><line x1="320.57" y1="72.94" x2="320.67" y2="72.94" fill="none" stroke="#fff" stroke-linecap="round" stroke-miterlimit="10" stroke-width="4"/><line x1="324.17" y1="80.02" x2="324.27" y2="80.02" fill="none" stroke="#fff" stroke-linecap="round" stroke-miterlimit="10" stroke-width="4"/><line x1="327.17" y1="87.5" x2="327.27" y2="87.5" fill="none" stroke="#fff" stroke-linecap="round" stroke-miterlimit="10" stroke-width="4"/><line x1="329.27" y1="95.2" x2="329.37" y2="95.2" fill="none" stroke="#fff" stroke-linecap="round" stroke-miterlimit="10" stroke-width="4"/><line x1="330.57" y1="103.11" x2="330.67" y2="103.11" fill="none" stroke="#fff" stroke-linecap="round" stroke-miterlimit="10" stroke-width="4"/><line x1="331.07" y1="111.02" x2="331.17" y2="111.02" fill="none" stroke="#fff" stroke-linecap="round" stroke-miterlimit="10" stroke-width="4"/><line x1="330.37" y1="119.02" x2="330.47" y2="119.02" fill="none" stroke="#fff" stroke-linecap="round" stroke-miterlimit="10" stroke-width="4"/><line x1="328.87" y1="126.9" x2="328.97" y2="126.9" fill="none" stroke="#fff" stroke-linecap="round" stroke-miterlimit="10" stroke-width="4"/><line x1="326.47" y1="134.53" x2="326.57" y2="134.53" fill="none" stroke="#fff" stroke-linecap="round" stroke-miterlimit="10" stroke-width="4"/><line x1="323.17" y1="141.84" x2="323.27" y2="141.84" fill="none" stroke="#fff" stroke-linecap="round" stroke-miterlimit="10" stroke-width="4"/><line x1="319.07" y1="148.72" x2="319.17" y2="148.72" fill="none" stroke="#fff" stroke-linecap="round" stroke-miterlimit="10" stroke-width="4"/><line x1="314.27" y1="155.11" x2="314.37" y2="155.11" fill="none" stroke="#fff" stroke-linecap="round" stroke-miterlimit="10" stroke-width="4"/><line x1="308.87" y1="160.93" x2="308.97" y2="160.93" fill="none" stroke="#fff" stroke-linecap="round" stroke-miterlimit="10" stroke-width="4"/><line x1="302.76" y1="166.2" x2="302.86" y2="166.2" fill="none" stroke="#fff" stroke-linecap="round" stroke-miterlimit="10" stroke-width="4"/><line x1="296.27" y1="170.73" x2="296.37" y2="170.73" fill="none" stroke="#fff" stroke-linecap="round" stroke-miterlimit="10" stroke-width="4"/><line x1="289.17" y1="174.52" x2="289.27" y2="174.52" fill="none" stroke="#fff" stroke-linecap="round" stroke-miterlimit="10" stroke-width="4"/></svg>