<?xml version="1.0" encoding="utf-8"?>
<!-- Generator: Adobe Illustrator 25.4.1, SVG Export Plug-In . SVG Version: 6.00 Build 0)  -->
<svg version="1.1" id="Layer_1" xmlns="http://www.w3.org/2000/svg" xmlns:xlink="http://www.w3.org/1999/xlink" x="0px" y="0px"
	 viewBox="0 0 347.6 140.8" style="enable-background:new 0 0 347.6 140.8;" xml:space="preserve">
<style type="text/css">
	.st0{stroke:#FFFFFF;stroke-width:4;stroke-linecap:round;}
</style>
<line class="st0" x1="345.6" y1="17.2" x2="345.6" y2="17.2"/>
<line class="st0" x1="337.8" y1="15.6" x2="337.8" y2="15.6"/>
<line class="st0" x1="329.9" y1="14.1" x2="329.9" y2="14.1"/>
<line class="st0" x1="322" y1="12.6" x2="322" y2="12.6"/>
<line class="st0" x1="314.1" y1="11.3" x2="314.1" y2="11.3"/>
<line class="st0" x1="306.2" y1="10.1" x2="306.2" y2="10.1"/>
<line class="st0" x1="298.3" y1="8.9" x2="298.3" y2="8.9"/>
<line class="st0" x1="290.4" y1="7.8" x2="290.4" y2="7.8"/>
<line class="st0" x1="282.4" y1="6.9" x2="282.4" y2="6.9"/>
<line class="st0" x1="274.5" y1="6" x2="274.5" y2="6"/>
<line class="st0" x1="266.5" y1="5.1" x2="266.5" y2="5.1"/>
<line class="st0" x1="258.6" y1="4.4" x2="258.6" y2="4.4"/>
<line class="st0" x1="250.6" y1="3.8" x2="250.6" y2="3.8"/>
<line class="st0" x1="242.6" y1="3.3" x2="242.6" y2="3.3"/>
<line class="st0" x1="234.6" y1="2.8" x2="234.6" y2="2.8"/>
<line class="st0" x1="226.6" y1="2.5" x2="226.7" y2="2.5"/>
<line class="st0" x1="218.6" y1="2.2" x2="218.6" y2="2.2"/>
<line class="st0" x1="210.6" y1="2" x2="210.6" y2="2"/>
<line class="st0" x1="202.6" y1="2" x2="202.6" y2="2"/>
<line class="st0" x1="194.6" y1="2" x2="194.6" y2="2"/>
<line class="st0" x1="186.6" y1="2.2" x2="186.6" y2="2.2"/>
<line class="st0" x1="178.6" y1="2.5" x2="178.6" y2="2.5"/>
<line class="st0" x1="170.6" y1="2.9" x2="170.6" y2="2.9"/>
<line class="st0" x1="162.6" y1="3.5" x2="162.6" y2="3.5"/>
<line class="st0" x1="154.7" y1="4.2" x2="154.7" y2="4.2"/>
<line class="st0" x1="146.7" y1="5" x2="146.7" y2="5"/>
<line class="st0" x1="138.7" y1="6" x2="138.8" y2="6"/>
<line class="st0" x1="130.8" y1="7.2" x2="130.8" y2="7.2"/>
<line class="st0" x1="122.9" y1="8.5" x2="122.9" y2="8.5"/>
<line class="st0" x1="115.1" y1="10.1" x2="115.1" y2="10.1"/>
<line class="st0" x1="107.2" y1="11.8" x2="107.3" y2="11.8"/>
<line class="st0" x1="99.5" y1="13.7" x2="99.5" y2="13.7"/>
<line class="st0" x1="91.8" y1="15.9" x2="91.8" y2="15.9"/>
<line class="st0" x1="84.2" y1="18.4" x2="84.2" y2="18.4"/>
<line class="st0" x1="76.7" y1="21.2" x2="76.7" y2="21.2"/>
<line class="st0" x1="69.3" y1="24.2" x2="69.3" y2="24.2"/>
<line class="st0" x1="62" y1="27.6" x2="62.1" y2="27.6"/>
<line class="st0" x1="55" y1="31.4" x2="55" y2="31.4"/>
<line class="st0" x1="48.1" y1="35.5" x2="48.1" y2="35.5"/>
<line class="st0" x1="41.5" y1="40" x2="41.6" y2="40"/>
<line class="st0" x1="35.3" y1="45" x2="35.3" y2="45"/>
<line class="st0" x1="29.4" y1="50.4" x2="29.4" y2="50.4"/>
<line class="st0" x1="24" y1="56.3" x2="24" y2="56.3"/>
<line class="st0" x1="19.1" y1="62.5" x2="19.1" y2="62.5"/>
<line class="st0" x1="14.7" y1="69.2" x2="14.7" y2="69.2"/>
<line class="st0" x1="11" y1="76.3" x2="11" y2="76.3"/>
<line class="st0" x1="7.9" y1="83.6" x2="7.9" y2="83.6"/>
<line class="st0" x1="5.5" y1="91.3" x2="5.5" y2="91.3"/>
<line class="st0" x1="3.7" y1="99" x2="3.7" y2="99"/>
<line class="st0" x1="2.6" y1="106.9" x2="2.6" y2="106.9"/>
<line class="st0" x1="2" y1="114.9" x2="2" y2="114.9"/>
<line class="st0" x1="2" y1="122.9" x2="2" y2="122.9"/>
<line class="st0" x1="2.5" y1="130.9" x2="2.5" y2="130.9"/>
<line class="st0" x1="3.4" y1="138.8" x2="3.4" y2="138.8"/>
</svg>
