<svg id="adc6d7be-9f62-41ad-a0a0-9da1268a7ad1" data-name="Layer 1" xmlns="http://www.w3.org/2000/svg" width="239.28" height="199.85" viewBox="0 0 239.28 199.85"><line x1="3.31" y1="3.09" x2="3.41" y2="3.09" fill="none" stroke="#fff" stroke-linecap="round" stroke-miterlimit="10" stroke-width="4"/><line x1="11.29" y1="3.16" x2="11.39" y2="3.16" fill="none" stroke="#fff" stroke-linecap="round" stroke-miterlimit="10" stroke-width="4"/><line x1="19.33" y1="3.39" x2="19.43" y2="3.39" fill="none" stroke="#fff" stroke-linecap="round" stroke-miterlimit="10" stroke-width="4"/><line x1="27.31" y1="3.8" x2="27.41" y2="3.8" fill="none" stroke="#fff" stroke-linecap="round" stroke-miterlimit="10" stroke-width="4"/><line x1="35.28" y1="4.33" x2="35.38" y2="4.33" fill="none" stroke="#fff" stroke-linecap="round" stroke-miterlimit="10" stroke-width="4"/><line x1="43.32" y1="5" x2="43.42" y2="5" fill="none" stroke="#fff" stroke-linecap="round" stroke-miterlimit="10" stroke-width="4"/><line x1="51.3" y1="5.8" x2="51.4" y2="5.8" fill="none" stroke="#fff" stroke-linecap="round" stroke-miterlimit="10" stroke-width="4"/><line x1="59.23" y1="6.76" x2="59.33" y2="6.76" fill="none" stroke="#fff" stroke-linecap="round" stroke-miterlimit="10" stroke-width="4"/><line x1="67.15" y1="7.94" x2="67.25" y2="7.94" fill="none" stroke="#fff" stroke-linecap="round" stroke-miterlimit="10" stroke-width="4"/><line x1="75.06" y1="9.21" x2="75.16" y2="9.21" fill="none" stroke="#fff" stroke-linecap="round" stroke-miterlimit="10" stroke-width="4"/><line x1="82.93" y1="10.65" x2="83.03" y2="10.65" fill="none" stroke="#fff" stroke-linecap="round" stroke-miterlimit="10" stroke-width="4"/><line x1="90.73" y1="12.28" x2="90.83" y2="12.28" fill="none" stroke="#fff" stroke-linecap="round" stroke-miterlimit="10" stroke-width="4"/><line x1="98.58" y1="14.11" x2="98.68" y2="14.11" fill="none" stroke="#fff" stroke-linecap="round" stroke-miterlimit="10" stroke-width="4"/><line x1="106.29" y1="16.04" x2="106.39" y2="16.04" fill="none" stroke="#fff" stroke-linecap="round" stroke-miterlimit="10" stroke-width="4"/><line x1="114.02" y1="18.19" x2="114.12" y2="18.19" fill="none" stroke="#fff" stroke-linecap="round" stroke-miterlimit="10" stroke-width="4"/><line x1="121.68" y1="20.44" x2="121.78" y2="20.44" fill="none" stroke="#fff" stroke-linecap="round" stroke-miterlimit="10" stroke-width="4"/><line x1="129.31" y1="22.99" x2="129.41" y2="22.99" fill="none" stroke="#fff" stroke-linecap="round" stroke-miterlimit="10" stroke-width="4"/><line x1="136.82" y1="25.69" x2="136.92" y2="25.69" fill="none" stroke="#fff" stroke-linecap="round" stroke-miterlimit="10" stroke-width="4"/><line x1="144.26" y1="28.58" x2="144.36" y2="28.58" fill="none" stroke="#fff" stroke-linecap="round" stroke-miterlimit="10" stroke-width="4"/><line x1="151.64" y1="31.7" x2="151.74" y2="31.7" fill="none" stroke="#fff" stroke-linecap="round" stroke-miterlimit="10" stroke-width="4"/><line x1="158.9" y1="35.05" x2="159" y2="35.05" fill="none" stroke="#fff" stroke-linecap="round" stroke-miterlimit="10" stroke-width="4"/><line x1="166.05" y1="38.65" x2="166.15" y2="38.65" fill="none" stroke="#fff" stroke-linecap="round" stroke-miterlimit="10" stroke-width="4"/><line x1="173.07" y1="42.49" x2="173.17" y2="42.49" fill="none" stroke="#fff" stroke-linecap="round" stroke-miterlimit="10" stroke-width="4"/><line x1="179.96" y1="46.58" x2="180.06" y2="46.58" fill="none" stroke="#fff" stroke-linecap="round" stroke-miterlimit="10" stroke-width="4"/><line x1="186.66" y1="50.96" x2="186.76" y2="50.96" fill="none" stroke="#fff" stroke-linecap="round" stroke-miterlimit="10" stroke-width="4"/><line x1="193.14" y1="55.7" x2="193.24" y2="55.7" fill="none" stroke="#fff" stroke-linecap="round" stroke-miterlimit="10" stroke-width="4"/><line x1="199.38" y1="60.73" x2="199.48" y2="60.73" fill="none" stroke="#fff" stroke-linecap="round" stroke-miterlimit="10" stroke-width="4"/><line x1="205.24" y1="66.04" x2="205.34" y2="66.04" fill="none" stroke="#fff" stroke-linecap="round" stroke-miterlimit="10" stroke-width="4"/><line x1="210.9" y1="71.78" x2="211" y2="71.78" fill="none" stroke="#fff" stroke-linecap="round" stroke-miterlimit="10" stroke-width="4"/><line x1="216.03" y1="77.83" x2="216.13" y2="77.83" fill="none" stroke="#fff" stroke-linecap="round" stroke-miterlimit="10" stroke-width="4"/><line x1="220.77" y1="84.27" x2="220.87" y2="84.27" fill="none" stroke="#fff" stroke-linecap="round" stroke-miterlimit="10" stroke-width="4"/><line x1="225.01" y1="91.05" x2="225.11" y2="91.05" fill="none" stroke="#fff" stroke-linecap="round" stroke-miterlimit="10" stroke-width="4"/><line x1="228.61" y1="98.19" x2="228.71" y2="98.19" fill="none" stroke="#fff" stroke-linecap="round" stroke-miterlimit="10" stroke-width="4"/><line x1="231.54" y1="105.63" x2="231.64" y2="105.63" fill="none" stroke="#fff" stroke-linecap="round" stroke-miterlimit="10" stroke-width="4"/><line x1="233.71" y1="113.3" x2="233.81" y2="113.3" fill="none" stroke="#fff" stroke-linecap="round" stroke-miterlimit="10" stroke-width="4"/><line x1="235.16" y1="121.16" x2="235.26" y2="121.16" fill="none" stroke="#fff" stroke-linecap="round" stroke-miterlimit="10" stroke-width="4"/><line x1="235.87" y1="129.11" x2="235.97" y2="129.11" fill="none" stroke="#fff" stroke-linecap="round" stroke-miterlimit="10" stroke-width="4"/><line x1="235.85" y1="137.08" x2="235.95" y2="137.08" fill="none" stroke="#fff" stroke-linecap="round" stroke-miterlimit="10" stroke-width="4"/><line x1="234.98" y1="145.04" x2="235.08" y2="145.04" fill="none" stroke="#fff" stroke-linecap="round" stroke-miterlimit="10" stroke-width="4"/><line x1="233.54" y1="152.92" x2="233.64" y2="152.92" fill="none" stroke="#fff" stroke-linecap="round" stroke-miterlimit="10" stroke-width="4"/><line x1="231.54" y1="160.65" x2="231.64" y2="160.65" fill="none" stroke="#fff" stroke-linecap="round" stroke-miterlimit="10" stroke-width="4"/><line x1="228.93" y1="168.25" x2="229.03" y2="168.25" fill="none" stroke="#fff" stroke-linecap="round" stroke-miterlimit="10" stroke-width="4"/><line x1="225.95" y1="175.64" x2="226.05" y2="175.64" fill="none" stroke="#fff" stroke-linecap="round" stroke-miterlimit="10" stroke-width="4"/><line x1="222.45" y1="182.88" x2="222.55" y2="182.88" fill="none" stroke="#fff" stroke-linecap="round" stroke-miterlimit="10" stroke-width="4"/><line x1="218.65" y1="189.87" x2="218.75" y2="189.87" fill="none" stroke="#fff" stroke-linecap="round" stroke-miterlimit="10" stroke-width="4"/><line x1="214.52" y1="196.76" x2="214.62" y2="196.76" fill="none" stroke="#fff" stroke-linecap="round" stroke-miterlimit="10" stroke-width="4"/></svg>