<?xml version="1.0" encoding="utf-8"?>
<!-- Generator: Adobe Illustrator 25.4.1, SVG Export Plug-In . SVG Version: 6.00 Build 0)  -->
<svg version="1.1" id="Layer_1" xmlns="http://www.w3.org/2000/svg" xmlns:xlink="http://www.w3.org/1999/xlink" x="0px" y="0px"
	 viewBox="0 0 374.5 497.4" style="enable-background:new 0 0 374.5 497.4;" xml:space="preserve">
<style type="text/css">
	.st0{stroke:#FFFFFF;stroke-width:4;stroke-linecap:round;}
	.st1{stroke:#FFFFFF;stroke-width:3.9994;stroke-linecap:round;}
</style>
<g>
	<line class="st0" x1="2" y1="2" x2="2" y2="2"/>
	<line class="st0" x1="9.5" y1="4.5" x2="9.6" y2="4.5"/>
	<line class="st0" x1="17.1" y1="7.1" x2="17.1" y2="7.1"/>
	<line class="st0" x1="24.7" y1="9.7" x2="24.7" y2="9.7"/>
	<line class="st0" x1="32.2" y1="12.5" x2="32.2" y2="12.5"/>
	<line class="st0" x1="39.7" y1="15.2" x2="39.7" y2="15.2"/>
	<line class="st0" x1="47.2" y1="18.1" x2="47.2" y2="18.1"/>
	<line class="st0" x1="54.7" y1="21.1" x2="54.7" y2="21.1"/>
	<line class="st0" x1="62.1" y1="24.1" x2="62.1" y2="24.1"/>
	<line class="st0" x1="69.5" y1="27.1" x2="69.5" y2="27.1"/>
	<line class="st0" x1="76.9" y1="30.3" x2="76.9" y2="30.3"/>
	<line class="st0" x1="84.2" y1="33.5" x2="84.3" y2="33.5"/>
	<line class="st0" x1="91.6" y1="36.8" x2="91.6" y2="36.8"/>
	<line class="st0" x1="98.9" y1="40.1" x2="98.9" y2="40.1"/>
	<line class="st0" x1="106.1" y1="43.6" x2="106.1" y2="43.6"/>
	<line class="st0" x1="113.3" y1="47.1" x2="113.3" y2="47.1"/>
	<line class="st0" x1="120.5" y1="50.6" x2="120.5" y2="50.6"/>
	<line class="st0" x1="127.6" y1="54.3" x2="127.6" y2="54.3"/>
	<line class="st0" x1="134.7" y1="58" x2="134.7" y2="58"/>
	<line class="st0" x1="141.7" y1="61.7" x2="141.7" y2="61.7"/>
	<line class="st0" x1="148.7" y1="65.5" x2="148.8" y2="65.5"/>
	<line class="st0" x1="155.8" y1="69.5" x2="155.8" y2="69.5"/>
	<line class="st0" x1="162.7" y1="73.5" x2="162.7" y2="73.5"/>
	<line class="st0" x1="169.6" y1="77.5" x2="169.6" y2="77.5"/>
	<line class="st0" x1="176.5" y1="81.7" x2="176.5" y2="81.7"/>
	<line class="st0" x1="183.2" y1="85.9" x2="183.2" y2="85.9"/>
	<line class="st0" x1="190" y1="90.1" x2="190" y2="90.1"/>
	<line class="st0" x1="196.7" y1="94.5" x2="196.7" y2="94.5"/>
	<line class="st0" x1="203.4" y1="98.9" x2="203.4" y2="98.9"/>
	<line class="st0" x1="210" y1="103.5" x2="210" y2="103.5"/>
	<line class="st0" x1="216.5" y1="108.1" x2="216.6" y2="108.1"/>
	<line class="st0" x1="223" y1="112.8" x2="223" y2="112.8"/>
	<line class="st0" x1="229.4" y1="117.5" x2="229.5" y2="117.5"/>
	<line class="st0" x1="235.8" y1="122.4" x2="235.8" y2="122.4"/>
	<line class="st0" x1="242.1" y1="127.3" x2="242.1" y2="127.3"/>
	<line class="st0" x1="248.3" y1="132.3" x2="248.4" y2="132.3"/>
	<line class="st0" x1="254.5" y1="137.4" x2="254.5" y2="137.4"/>
	<line class="st0" x1="260.6" y1="142.6" x2="260.6" y2="142.6"/>
	<line class="st0" x1="266.6" y1="147.9" x2="266.6" y2="147.9"/>
	<line class="st0" x1="272.5" y1="153.3" x2="272.5" y2="153.3"/>
	<line class="st0" x1="278.3" y1="158.8" x2="278.4" y2="158.8"/>
	<line class="st0" x1="284.1" y1="164.4" x2="284.1" y2="164.4"/>
	<line class="st0" x1="289.8" y1="170" x2="289.8" y2="170"/>
	<line class="st0" x1="295.3" y1="175.8" x2="295.3" y2="175.8"/>
	<line class="st0" x1="300.7" y1="181.6" x2="300.7" y2="181.6"/>
	<line class="st0" x1="306.1" y1="187.6" x2="306.1" y2="187.6"/>
	<line class="st0" x1="311.2" y1="193.7" x2="311.2" y2="193.7"/>
	<line class="st0" x1="316.3" y1="199.9" x2="316.3" y2="199.9"/>
	<line class="st0" x1="321.2" y1="206.2" x2="321.2" y2="206.2"/>
	<line class="st0" x1="326" y1="212.7" x2="326" y2="212.7"/>
	<line class="st0" x1="330.6" y1="219.2" x2="330.6" y2="219.2"/>
	<line class="st0" x1="335.1" y1="225.8" x2="335.1" y2="225.8"/>
	<line class="st0" x1="339.3" y1="232.6" x2="339.3" y2="232.6"/>
	<line class="st0" x1="343.4" y1="239.5" x2="343.4" y2="239.5"/>
	<line class="st0" x1="347.3" y1="246.5" x2="347.3" y2="246.5"/>
	<line class="st0" x1="351" y1="253.6" x2="351" y2="253.6"/>
	<line class="st0" x1="354.4" y1="260.8" x2="354.4" y2="260.8"/>
	<line class="st0" x1="357.5" y1="268.1" x2="357.6" y2="268.1"/>
	<line class="st0" x1="360.5" y1="275.6" x2="360.5" y2="275.6"/>
	<line class="st0" x1="363.1" y1="283.1" x2="363.1" y2="283.1"/>
	<line class="st0" x1="365.5" y1="290.9" x2="365.5" y2="290.9"/>
	<line class="st0" x1="367.5" y1="298.5" x2="367.5" y2="298.5"/>
	<line class="st0" x1="369.2" y1="306.3" x2="369.2" y2="306.3"/>
	<line class="st0" x1="370.6" y1="314.2" x2="370.6" y2="314.2"/>
	<line class="st0" x1="371.6" y1="322.1" x2="371.6" y2="322.1"/>
	<line class="st0" x1="372.2" y1="330.1" x2="372.3" y2="330.1"/>
	<line class="st0" x1="372.6" y1="338.1" x2="372.6" y2="338.1"/>
	<line class="st0" x1="372.4" y1="346.1" x2="372.4" y2="346.1"/>
	<line class="st0" x1="371.9" y1="354.1" x2="371.9" y2="354.1"/>
	<line class="st0" x1="371" y1="362" x2="371" y2="362"/>
	<line class="st0" x1="369.7" y1="369.9" x2="369.7" y2="369.9"/>
	<line class="st0" x1="368" y1="377.7" x2="368" y2="377.7"/>
	<line class="st0" x1="366" y1="385.5" x2="366" y2="385.5"/>
	<line class="st0" x1="363.6" y1="393.1" x2="363.6" y2="393.1"/>
	<line class="st0" x1="360.8" y1="400.6" x2="360.8" y2="400.6"/>
	<line class="st0" x1="357.7" y1="408" x2="357.7" y2="408"/>
	<line class="st0" x1="354.4" y1="415.2" x2="354.4" y2="415.2"/>
	<line class="st0" x1="350.7" y1="422.3" x2="350.7" y2="422.3"/>
	<line class="st0" x1="346.7" y1="429.2" x2="346.7" y2="429.2"/>
	<line class="st0" x1="342.4" y1="436" x2="342.5" y2="436"/>
	<line class="st0" x1="338" y1="442.6" x2="338" y2="442.6"/>
	<line class="st0" x1="333.3" y1="449.1" x2="333.3" y2="449.1"/>
	<line class="st0" x1="328.4" y1="455.4" x2="328.4" y2="455.4"/>
	<line class="st0" x1="323.3" y1="461.6" x2="323.3" y2="461.6"/>
	<line class="st0" x1="317.9" y1="467.6" x2="318" y2="467.6"/>
	<line class="st0" x1="312.5" y1="473.5" x2="312.5" y2="473.5"/>
	<line class="st0" x1="306.9" y1="479.2" x2="306.9" y2="479.2"/>
	<line class="st0" x1="301.1" y1="484.7" x2="301.2" y2="484.7"/>
	<line class="st1" x1="295.3" y1="490.1" x2="295.3" y2="490.1"/>
	<line class="st0" x1="289.3" y1="495.4" x2="289.3" y2="495.4"/>
</g>
</svg>
