<svg id="b1f55db5-e090-49e2-9aa9-40b98564d969" data-name="Layer 1" xmlns="http://www.w3.org/2000/svg" width="513.49" height="279.65" viewBox="0 0 513.49 279.65"><line x1="495.64" y1="3.17" x2="495.74" y2="3.17" fill="none" stroke="#fff" stroke-linecap="round" stroke-miterlimit="10" stroke-width="4"/><line x1="498.64" y1="9.97" x2="498.74" y2="9.97" fill="none" stroke="#fff" stroke-linecap="round" stroke-miterlimit="10" stroke-width="4"/><line x1="502.14" y1="17.37" x2="502.24" y2="17.37" fill="none" stroke="#fff" stroke-linecap="round" stroke-miterlimit="10" stroke-width="4"/><line x1="504.74" y1="24.87" x2="504.84" y2="24.87" fill="none" stroke="#fff" stroke-linecap="round" stroke-miterlimit="10" stroke-width="4"/><line x1="506.84" y1="32.57" x2="506.94" y2="32.57" fill="none" stroke="#fff" stroke-linecap="round" stroke-miterlimit="10" stroke-width="4"/><line x1="508.44" y1="40.48" x2="508.54" y2="40.48" fill="none" stroke="#fff" stroke-linecap="round" stroke-miterlimit="10" stroke-width="4"/><line x1="509.24" y1="48.37" x2="509.34" y2="48.37" fill="none" stroke="#fff" stroke-linecap="round" stroke-miterlimit="10" stroke-width="4"/><line x1="509.14" y1="56.38" x2="509.24" y2="56.38" fill="none" stroke="#fff" stroke-linecap="round" stroke-miterlimit="10" stroke-width="4"/><line x1="508.04" y1="64.27" x2="508.14" y2="64.27" fill="none" stroke="#fff" stroke-linecap="round" stroke-miterlimit="10" stroke-width="4"/><line x1="506.04" y1="71.98" x2="506.14" y2="71.98" fill="none" stroke="#fff" stroke-linecap="round" stroke-miterlimit="10" stroke-width="4"/><line x1="502.94" y1="79.28" x2="503.04" y2="79.28" fill="none" stroke="#fff" stroke-linecap="round" stroke-miterlimit="10" stroke-width="4"/><line x1="498.94" y1="86.07" x2="499.04" y2="86.07" fill="none" stroke="#fff" stroke-linecap="round" stroke-miterlimit="10" stroke-width="4"/><line x1="494.19" y1="92.47" x2="494.29" y2="92.47" fill="none" stroke="#fff" stroke-linecap="round" stroke-miterlimit="10" stroke-width="4"/><line x1="488.84" y1="98.27" x2="488.94" y2="98.27" fill="none" stroke="#fff" stroke-linecap="round" stroke-miterlimit="10" stroke-width="4"/><line x1="482.84" y1="103.67" x2="482.94" y2="103.67" fill="none" stroke="#fff" stroke-linecap="round" stroke-miterlimit="10" stroke-width="4"/><line x1="476.54" y1="108.58" x2="476.64" y2="108.58" fill="none" stroke="#fff" stroke-linecap="round" stroke-miterlimit="10" stroke-width="4"/><line x1="469.94" y1="112.98" x2="470.04" y2="112.98" fill="none" stroke="#fff" stroke-linecap="round" stroke-miterlimit="10" stroke-width="4"/><line x1="463.14" y1="117.18" x2="463.24" y2="117.18" fill="none" stroke="#fff" stroke-linecap="round" stroke-miterlimit="10" stroke-width="4"/><line x1="456.04" y1="120.98" x2="456.14" y2="120.98" fill="none" stroke="#fff" stroke-linecap="round" stroke-miterlimit="10" stroke-width="4"/><line x1="448.92" y1="124.47" x2="449.02" y2="124.47" fill="none" stroke="#fff" stroke-linecap="round" stroke-miterlimit="10" stroke-width="4"/><line x1="441.64" y1="127.77" x2="441.74" y2="127.77" fill="none" stroke="#fff" stroke-linecap="round" stroke-miterlimit="10" stroke-width="4"/><line x1="434.24" y1="130.87" x2="434.34" y2="130.87" fill="none" stroke="#fff" stroke-linecap="round" stroke-miterlimit="10" stroke-width="4"/><line x1="426.74" y1="133.77" x2="426.84" y2="133.77" fill="none" stroke="#fff" stroke-linecap="round" stroke-miterlimit="10" stroke-width="4"/><line x1="419.24" y1="136.58" x2="419.34" y2="136.58" fill="none" stroke="#fff" stroke-linecap="round" stroke-miterlimit="10" stroke-width="4"/><line x1="411.69" y1="139.17" x2="411.79" y2="139.17" fill="none" stroke="#fff" stroke-linecap="round" stroke-miterlimit="10" stroke-width="4"/><line x1="404.14" y1="141.68" x2="404.24" y2="141.68" fill="none" stroke="#fff" stroke-linecap="round" stroke-miterlimit="10" stroke-width="4"/><line x1="396.44" y1="144.17" x2="396.54" y2="144.17" fill="none" stroke="#fff" stroke-linecap="round" stroke-miterlimit="10" stroke-width="4"/><line x1="388.84" y1="146.37" x2="388.94" y2="146.37" fill="none" stroke="#fff" stroke-linecap="round" stroke-miterlimit="10" stroke-width="4"/><line x1="381.14" y1="148.67" x2="381.24" y2="148.67" fill="none" stroke="#fff" stroke-linecap="round" stroke-miterlimit="10" stroke-width="4"/><line x1="373.44" y1="150.88" x2="373.54" y2="150.88" fill="none" stroke="#fff" stroke-linecap="round" stroke-miterlimit="10" stroke-width="4"/><line x1="365.69" y1="152.97" x2="365.79" y2="152.97" fill="none" stroke="#fff" stroke-linecap="round" stroke-miterlimit="10" stroke-width="4"/><line x1="357.94" y1="154.97" x2="358.04" y2="154.97" fill="none" stroke="#fff" stroke-linecap="round" stroke-miterlimit="10" stroke-width="4"/><line x1="350.19" y1="156.97" x2="350.29" y2="156.97" fill="none" stroke="#fff" stroke-linecap="round" stroke-miterlimit="10" stroke-width="4"/><line x1="342.44" y1="158.98" x2="342.54" y2="158.98" fill="none" stroke="#fff" stroke-linecap="round" stroke-miterlimit="10" stroke-width="4"/><line x1="334.64" y1="160.87" x2="334.74" y2="160.87" fill="none" stroke="#fff" stroke-linecap="round" stroke-miterlimit="10" stroke-width="4"/><line x1="326.94" y1="162.77" x2="327.04" y2="162.77" fill="none" stroke="#fff" stroke-linecap="round" stroke-miterlimit="10" stroke-width="4"/><line x1="319.14" y1="164.67" x2="319.24" y2="164.67" fill="none" stroke="#fff" stroke-linecap="round" stroke-miterlimit="10" stroke-width="4"/><line x1="311.34" y1="166.58" x2="311.44" y2="166.58" fill="none" stroke="#fff" stroke-linecap="round" stroke-miterlimit="10" stroke-width="4"/><line x1="303.54" y1="168.48" x2="303.64" y2="168.48" fill="none" stroke="#fff" stroke-linecap="round" stroke-miterlimit="10" stroke-width="4"/><line x1="295.74" y1="170.28" x2="295.84" y2="170.28" fill="none" stroke="#fff" stroke-linecap="round" stroke-miterlimit="10" stroke-width="4"/><line x1="287.99" y1="172.17" x2="288.09" y2="172.17" fill="none" stroke="#fff" stroke-linecap="round" stroke-miterlimit="10" stroke-width="4"/><line x1="280.14" y1="174.07" x2="280.24" y2="174.07" fill="none" stroke="#fff" stroke-linecap="round" stroke-miterlimit="10" stroke-width="4"/><line x1="272.44" y1="175.88" x2="272.54" y2="175.88" fill="none" stroke="#fff" stroke-linecap="round" stroke-miterlimit="10" stroke-width="4"/><line x1="264.64" y1="177.78" x2="264.74" y2="177.78" fill="none" stroke="#fff" stroke-linecap="round" stroke-miterlimit="10" stroke-width="4"/><line x1="256.84" y1="179.68" x2="256.94" y2="179.68" fill="none" stroke="#fff" stroke-linecap="round" stroke-miterlimit="10" stroke-width="4"/><line x1="249.14" y1="181.57" x2="249.24" y2="181.57" fill="none" stroke="#fff" stroke-linecap="round" stroke-miterlimit="10" stroke-width="4"/><line x1="241.29" y1="183.47" x2="241.39" y2="183.47" fill="none" stroke="#fff" stroke-linecap="round" stroke-miterlimit="10" stroke-width="4"/><line x1="233.54" y1="185.47" x2="233.64" y2="185.47" fill="none" stroke="#fff" stroke-linecap="round" stroke-miterlimit="10" stroke-width="4"/><line x1="225.84" y1="187.47" x2="225.94" y2="187.47" fill="none" stroke="#fff" stroke-linecap="round" stroke-miterlimit="10" stroke-width="4"/><line x1="218.04" y1="189.47" x2="218.14" y2="189.47" fill="none" stroke="#fff" stroke-linecap="round" stroke-miterlimit="10" stroke-width="4"/><line x1="210.24" y1="191.47" x2="210.34" y2="191.47" fill="none" stroke="#fff" stroke-linecap="round" stroke-miterlimit="10" stroke-width="4"/><line x1="202.54" y1="193.58" x2="202.64" y2="193.58" fill="none" stroke="#fff" stroke-linecap="round" stroke-miterlimit="10" stroke-width="4"/><line x1="194.84" y1="195.67" x2="194.94" y2="195.67" fill="none" stroke="#fff" stroke-linecap="round" stroke-miterlimit="10" stroke-width="4"/><line x1="187.14" y1="197.87" x2="187.24" y2="197.87" fill="none" stroke="#fff" stroke-linecap="round" stroke-miterlimit="10" stroke-width="4"/><line x1="179.44" y1="200.07" x2="179.54" y2="200.07" fill="none" stroke="#fff" stroke-linecap="round" stroke-miterlimit="10" stroke-width="4"/><line x1="171.69" y1="202.37" x2="171.79" y2="202.37" fill="none" stroke="#fff" stroke-linecap="round" stroke-miterlimit="10" stroke-width="4"/><line x1="164.04" y1="204.68" x2="164.14" y2="204.68" fill="none" stroke="#fff" stroke-linecap="round" stroke-miterlimit="10" stroke-width="4"/><line x1="156.42" y1="206.97" x2="156.52" y2="206.97" fill="none" stroke="#fff" stroke-linecap="round" stroke-miterlimit="10" stroke-width="4"/><line x1="148.74" y1="209.48" x2="148.84" y2="209.48" fill="none" stroke="#fff" stroke-linecap="round" stroke-miterlimit="10" stroke-width="4"/><line x1="141.14" y1="211.98" x2="141.24" y2="211.98" fill="none" stroke="#fff" stroke-linecap="round" stroke-miterlimit="10" stroke-width="4"/><line x1="133.54" y1="214.47" x2="133.64" y2="214.47" fill="none" stroke="#fff" stroke-linecap="round" stroke-miterlimit="10" stroke-width="4"/><line x1="126.04" y1="217.17" x2="126.14" y2="217.17" fill="none" stroke="#fff" stroke-linecap="round" stroke-miterlimit="10" stroke-width="4"/><line x1="118.49" y1="219.87" x2="118.59" y2="219.87" fill="none" stroke="#fff" stroke-linecap="round" stroke-miterlimit="10" stroke-width="4"/><line x1="111.04" y1="222.57" x2="111.14" y2="222.57" fill="none" stroke="#fff" stroke-linecap="round" stroke-miterlimit="10" stroke-width="4"/><line x1="103.59" y1="225.47" x2="103.69" y2="225.47" fill="none" stroke="#fff" stroke-linecap="round" stroke-miterlimit="10" stroke-width="4"/><line x1="96.14" y1="228.37" x2="96.24" y2="228.37" fill="none" stroke="#fff" stroke-linecap="round" stroke-miterlimit="10" stroke-width="4"/><line x1="88.74" y1="231.47" x2="88.84" y2="231.47" fill="none" stroke="#fff" stroke-linecap="round" stroke-miterlimit="10" stroke-width="4"/><line x1="81.34" y1="234.58" x2="81.44" y2="234.58" fill="none" stroke="#fff" stroke-linecap="round" stroke-miterlimit="10" stroke-width="4"/><line x1="74.04" y1="237.78" x2="74.14" y2="237.78" fill="none" stroke="#fff" stroke-linecap="round" stroke-miterlimit="10" stroke-width="4"/><line x1="66.74" y1="241.07" x2="66.84" y2="241.07" fill="none" stroke="#fff" stroke-linecap="round" stroke-miterlimit="10" stroke-width="4"/><line x1="59.54" y1="244.57" x2="59.64" y2="244.57" fill="none" stroke="#fff" stroke-linecap="round" stroke-miterlimit="10" stroke-width="4"/><line x1="52.34" y1="248.08" x2="52.44" y2="248.08" fill="none" stroke="#fff" stroke-linecap="round" stroke-miterlimit="10" stroke-width="4"/><line x1="45.24" y1="251.78" x2="45.34" y2="251.78" fill="none" stroke="#fff" stroke-linecap="round" stroke-miterlimit="10" stroke-width="4"/><line x1="38.19" y1="255.57" x2="38.29" y2="255.57" fill="none" stroke="#fff" stroke-linecap="round" stroke-miterlimit="10" stroke-width="4"/><line x1="31.24" y1="259.47" x2="31.34" y2="259.47" fill="none" stroke="#fff" stroke-linecap="round" stroke-miterlimit="10" stroke-width="4"/><line x1="24.34" y1="263.47" x2="24.44" y2="263.47" fill="none" stroke="#fff" stroke-linecap="round" stroke-miterlimit="10" stroke-width="4"/><line x1="17.54" y1="267.68" x2="17.64" y2="267.68" fill="none" stroke="#fff" stroke-linecap="round" stroke-miterlimit="10" stroke-width="4"/><line x1="10.74" y1="271.97" x2="10.84" y2="271.97" fill="none" stroke="#fff" stroke-linecap="round" stroke-miterlimit="10" stroke-width="4"/><line x1="4.14" y1="276.48" x2="4.24" y2="276.48" fill="none" stroke="#fff" stroke-linecap="round" stroke-miterlimit="10" stroke-width="4"/></svg>