<svg id="fc56dd62-d487-4b74-a0c7-34aa1f6cd77e" data-name="Layer 1" xmlns="http://www.w3.org/2000/svg" width="279.62" height="352.64" viewBox="0 0 279.62 352.64"><line x1="68.37" y1="3.27" x2="68.47" y2="3.27" fill="none" stroke="#fff" stroke-linecap="round" stroke-miterlimit="10" stroke-width="4"/><line x1="61.77" y1="7.77" x2="61.87" y2="7.77" fill="none" stroke="#fff" stroke-linecap="round" stroke-miterlimit="10" stroke-width="4"/><line x1="55.37" y1="12.57" x2="55.47" y2="12.57" fill="none" stroke="#fff" stroke-linecap="round" stroke-miterlimit="10" stroke-width="4"/><line x1="49.07" y1="17.48" x2="49.17" y2="17.48" fill="none" stroke="#fff" stroke-linecap="round" stroke-miterlimit="10" stroke-width="4"/><line x1="42.97" y1="22.67" x2="43.07" y2="22.67" fill="none" stroke="#fff" stroke-linecap="round" stroke-miterlimit="10" stroke-width="4"/><line x1="37.07" y1="28.09" x2="37.17" y2="28.09" fill="none" stroke="#fff" stroke-linecap="round" stroke-miterlimit="10" stroke-width="4"/><line x1="31.47" y1="33.77" x2="31.57" y2="33.77" fill="none" stroke="#fff" stroke-linecap="round" stroke-miterlimit="10" stroke-width="4"/><line x1="26.17" y1="39.78" x2="26.27" y2="39.78" fill="none" stroke="#fff" stroke-linecap="round" stroke-miterlimit="10" stroke-width="4"/><line x1="21.17" y1="46.09" x2="21.27" y2="46.09" fill="none" stroke="#fff" stroke-linecap="round" stroke-miterlimit="10" stroke-width="4"/><line x1="16.67" y1="52.68" x2="16.77" y2="52.68" fill="none" stroke="#fff" stroke-linecap="round" stroke-miterlimit="10" stroke-width="4"/><line x1="12.67" y1="59.59" x2="12.77" y2="59.59" fill="none" stroke="#fff" stroke-linecap="round" stroke-miterlimit="10" stroke-width="4"/><line x1="9.27" y1="66.89" x2="9.37" y2="66.89" fill="none" stroke="#fff" stroke-linecap="round" stroke-miterlimit="10" stroke-width="4"/><line x1="6.57" y1="74.37" x2="6.67" y2="74.37" fill="none" stroke="#fff" stroke-linecap="round" stroke-miterlimit="10" stroke-width="4"/><line x1="4.57" y1="82.09" x2="4.67" y2="82.09" fill="none" stroke="#fff" stroke-linecap="round" stroke-miterlimit="10" stroke-width="4"/><line x1="3.37" y1="89.98" x2="3.47" y2="89.98" fill="none" stroke="#fff" stroke-linecap="round" stroke-miterlimit="10" stroke-width="4"/><line x1="2.97" y1="97.98" x2="3.07" y2="97.98" fill="none" stroke="#fff" stroke-linecap="round" stroke-miterlimit="10" stroke-width="4"/><line x1="3.37" y1="105.87" x2="3.47" y2="105.87" fill="none" stroke="#fff" stroke-linecap="round" stroke-miterlimit="10" stroke-width="4"/><line x1="4.47" y1="113.77" x2="4.57" y2="113.77" fill="none" stroke="#fff" stroke-linecap="round" stroke-miterlimit="10" stroke-width="4"/><line x1="6.37" y1="121.57" x2="6.47" y2="121.57" fill="none" stroke="#fff" stroke-linecap="round" stroke-miterlimit="10" stroke-width="4"/><line x1="8.77" y1="129.17" x2="8.87" y2="129.17" fill="none" stroke="#fff" stroke-linecap="round" stroke-miterlimit="10" stroke-width="4"/><line x1="11.82" y1="136.57" x2="11.92" y2="136.57" fill="none" stroke="#fff" stroke-linecap="round" stroke-miterlimit="10" stroke-width="4"/><line x1="15.27" y1="143.77" x2="15.37" y2="143.77" fill="none" stroke="#fff" stroke-linecap="round" stroke-miterlimit="10" stroke-width="4"/><line x1="19.17" y1="150.78" x2="19.27" y2="150.78" fill="none" stroke="#fff" stroke-linecap="round" stroke-miterlimit="10" stroke-width="4"/><line x1="23.37" y1="157.59" x2="23.47" y2="157.59" fill="none" stroke="#fff" stroke-linecap="round" stroke-miterlimit="10" stroke-width="4"/><line x1="27.87" y1="164.18" x2="27.97" y2="164.18" fill="none" stroke="#fff" stroke-linecap="round" stroke-miterlimit="10" stroke-width="4"/><line x1="32.67" y1="170.57" x2="32.77" y2="170.57" fill="none" stroke="#fff" stroke-linecap="round" stroke-miterlimit="10" stroke-width="4"/><line x1="37.67" y1="176.89" x2="37.77" y2="176.89" fill="none" stroke="#fff" stroke-linecap="round" stroke-miterlimit="10" stroke-width="4"/><line x1="42.87" y1="182.98" x2="42.97" y2="182.98" fill="none" stroke="#fff" stroke-linecap="round" stroke-miterlimit="10" stroke-width="4"/><line x1="48.27" y1="188.87" x2="48.37" y2="188.87" fill="none" stroke="#fff" stroke-linecap="round" stroke-miterlimit="10" stroke-width="4"/><line x1="53.77" y1="194.67" x2="53.87" y2="194.67" fill="none" stroke="#fff" stroke-linecap="round" stroke-miterlimit="10" stroke-width="4"/><line x1="59.42" y1="200.37" x2="59.52" y2="200.37" fill="none" stroke="#fff" stroke-linecap="round" stroke-miterlimit="10" stroke-width="4"/><line x1="65.17" y1="205.89" x2="65.27" y2="205.89" fill="none" stroke="#fff" stroke-linecap="round" stroke-miterlimit="10" stroke-width="4"/><line x1="71.07" y1="211.37" x2="71.17" y2="211.37" fill="none" stroke="#fff" stroke-linecap="round" stroke-miterlimit="10" stroke-width="4"/><line x1="77.07" y1="216.68" x2="77.17" y2="216.68" fill="none" stroke="#fff" stroke-linecap="round" stroke-miterlimit="10" stroke-width="4"/><line x1="83.07" y1="221.89" x2="83.17" y2="221.89" fill="none" stroke="#fff" stroke-linecap="round" stroke-miterlimit="10" stroke-width="4"/><line x1="89.22" y1="226.97" x2="89.32" y2="226.97" fill="none" stroke="#fff" stroke-linecap="round" stroke-miterlimit="10" stroke-width="4"/><line x1="95.42" y1="232.07" x2="95.52" y2="232.07" fill="none" stroke="#fff" stroke-linecap="round" stroke-miterlimit="10" stroke-width="4"/><line x1="101.67" y1="237.07" x2="101.77" y2="237.07" fill="none" stroke="#fff" stroke-linecap="round" stroke-miterlimit="10" stroke-width="4"/><line x1="107.97" y1="241.98" x2="108.07" y2="241.98" fill="none" stroke="#fff" stroke-linecap="round" stroke-miterlimit="10" stroke-width="4"/><line x1="114.37" y1="246.77" x2="114.47" y2="246.77" fill="none" stroke="#fff" stroke-linecap="round" stroke-miterlimit="10" stroke-width="4"/><line x1="120.87" y1="251.48" x2="120.97" y2="251.48" fill="none" stroke="#fff" stroke-linecap="round" stroke-miterlimit="10" stroke-width="4"/><line x1="127.37" y1="256.28" x2="127.47" y2="256.28" fill="none" stroke="#fff" stroke-linecap="round" stroke-miterlimit="10" stroke-width="4"/><line x1="133.87" y1="260.87" x2="133.97" y2="260.87" fill="none" stroke="#fff" stroke-linecap="round" stroke-miterlimit="10" stroke-width="4"/><line x1="140.37" y1="265.47" x2="140.47" y2="265.47" fill="none" stroke="#fff" stroke-linecap="round" stroke-miterlimit="10" stroke-width="4"/><line x1="146.97" y1="269.98" x2="147.07" y2="269.98" fill="none" stroke="#fff" stroke-linecap="round" stroke-miterlimit="10" stroke-width="4"/><line x1="153.57" y1="274.47" x2="153.67" y2="274.47" fill="none" stroke="#fff" stroke-linecap="round" stroke-miterlimit="10" stroke-width="4"/><line x1="160.27" y1="278.98" x2="160.37" y2="278.98" fill="none" stroke="#fff" stroke-linecap="round" stroke-miterlimit="10" stroke-width="4"/><line x1="166.97" y1="283.39" x2="167.07" y2="283.39" fill="none" stroke="#fff" stroke-linecap="round" stroke-miterlimit="10" stroke-width="4"/><line x1="173.67" y1="287.67" x2="173.77" y2="287.67" fill="none" stroke="#fff" stroke-linecap="round" stroke-miterlimit="10" stroke-width="4"/><line x1="180.37" y1="291.97" x2="180.47" y2="291.97" fill="none" stroke="#fff" stroke-linecap="round" stroke-miterlimit="10" stroke-width="4"/><line x1="187.17" y1="296.27" x2="187.27" y2="296.27" fill="none" stroke="#fff" stroke-linecap="round" stroke-miterlimit="10" stroke-width="4"/><line x1="193.97" y1="300.57" x2="194.07" y2="300.57" fill="none" stroke="#fff" stroke-linecap="round" stroke-miterlimit="10" stroke-width="4"/><line x1="200.77" y1="304.77" x2="200.87" y2="304.77" fill="none" stroke="#fff" stroke-linecap="round" stroke-miterlimit="10" stroke-width="4"/><line x1="207.57" y1="308.97" x2="207.67" y2="308.97" fill="none" stroke="#fff" stroke-linecap="round" stroke-miterlimit="10" stroke-width="4"/><line x1="214.42" y1="313.07" x2="214.52" y2="313.07" fill="none" stroke="#fff" stroke-linecap="round" stroke-miterlimit="10" stroke-width="4"/><line x1="221.27" y1="317.28" x2="221.37" y2="317.28" fill="none" stroke="#fff" stroke-linecap="round" stroke-miterlimit="10" stroke-width="4"/><line x1="228.17" y1="321.28" x2="228.27" y2="321.28" fill="none" stroke="#fff" stroke-linecap="round" stroke-miterlimit="10" stroke-width="4"/><line x1="235.07" y1="325.37" x2="235.17" y2="325.37" fill="none" stroke="#fff" stroke-linecap="round" stroke-miterlimit="10" stroke-width="4"/><line x1="241.97" y1="329.48" x2="242.07" y2="329.48" fill="none" stroke="#fff" stroke-linecap="round" stroke-miterlimit="10" stroke-width="4"/><line x1="248.82" y1="333.47" x2="248.92" y2="333.47" fill="none" stroke="#fff" stroke-linecap="round" stroke-miterlimit="10" stroke-width="4"/><line x1="255.77" y1="337.47" x2="255.87" y2="337.47" fill="none" stroke="#fff" stroke-linecap="round" stroke-miterlimit="10" stroke-width="4"/><line x1="262.67" y1="341.47" x2="262.77" y2="341.47" fill="none" stroke="#fff" stroke-linecap="round" stroke-miterlimit="10" stroke-width="4"/><line x1="269.57" y1="345.47" x2="269.67" y2="345.47" fill="none" stroke="#fff" stroke-linecap="round" stroke-miterlimit="10" stroke-width="4"/><line x1="276.55" y1="349.37" x2="276.65" y2="349.37" fill="none" stroke="#fff" stroke-linecap="round" stroke-miterlimit="10" stroke-width="4"/></svg>