<?xml version="1.0" encoding="utf-8"?>
<!-- Generator: Adobe Illustrator 25.4.1, SVG Export Plug-In . SVG Version: 6.00 Build 0)  -->
<svg version="1.1" id="Layer_1" xmlns="http://www.w3.org/2000/svg" xmlns:xlink="http://www.w3.org/1999/xlink" x="0px" y="0px"
	 viewBox="0 0 509.1 277.7" style="enable-background:new 0 0 509.1 277.7;" xml:space="preserve">
<style type="text/css">
	.st0{stroke:#FFFFFF;stroke-width:4;stroke-linecap:round;}
</style>
<g>
	<line class="st0" x1="493.5" y1="2.2" x2="493.5" y2="2.2"/>
	<line class="st0" x1="496.5" y1="9" x2="496.5" y2="9"/>
	<line class="st0" x1="500" y1="16.4" x2="500" y2="16.4"/>
	<line class="st0" x1="502.6" y1="23.9" x2="502.6" y2="23.9"/>
	<line class="st0" x1="504.7" y1="31.6" x2="504.7" y2="31.6"/>
	<line class="st0" x1="506.3" y1="39.5" x2="506.3" y2="39.5"/>
	<line class="st0" x1="507.1" y1="47.4" x2="507.1" y2="47.4"/>
	<line class="st0" x1="507" y1="55.4" x2="507" y2="55.4"/>
	<line class="st0" x1="505.9" y1="63.3" x2="505.9" y2="63.3"/>
	<line class="st0" x1="503.9" y1="71" x2="503.9" y2="71"/>
	<line class="st0" x1="500.8" y1="78.3" x2="500.8" y2="78.3"/>
	<line class="st0" x1="496.8" y1="85.1" x2="496.8" y2="85.1"/>
	<line class="st0" x1="492" y1="91.5" x2="492.1" y2="91.5"/>
	<line class="st0" x1="486.7" y1="97.3" x2="486.7" y2="97.3"/>
	<line class="st0" x1="480.7" y1="102.7" x2="480.7" y2="102.7"/>
	<line class="st0" x1="474.4" y1="107.6" x2="474.4" y2="107.6"/>
	<line class="st0" x1="467.8" y1="112" x2="467.8" y2="112"/>
	<line class="st0" x1="461" y1="116.2" x2="461" y2="116.2"/>
	<line class="st0" x1="453.9" y1="120" x2="453.9" y2="120"/>
	<line class="st0" x1="446.7" y1="123.5" x2="446.8" y2="123.5"/>
	<line class="st0" x1="439.5" y1="126.8" x2="439.5" y2="126.8"/>
	<line class="st0" x1="432.1" y1="129.9" x2="432.1" y2="129.9"/>
	<line class="st0" x1="424.6" y1="132.8" x2="424.6" y2="132.8"/>
	<line class="st0" x1="417.1" y1="135.6" x2="417.1" y2="135.6"/>
	<line class="st0" x1="409.5" y1="138.2" x2="409.6" y2="138.2"/>
	<line class="st0" x1="402" y1="140.7" x2="402" y2="140.7"/>
	<line class="st0" x1="394.3" y1="143.2" x2="394.3" y2="143.2"/>
	<line class="st0" x1="386.7" y1="145.4" x2="386.7" y2="145.4"/>
	<line class="st0" x1="379" y1="147.7" x2="379" y2="147.7"/>
	<line class="st0" x1="371.3" y1="149.9" x2="371.3" y2="149.9"/>
	<line class="st0" x1="363.5" y1="152" x2="363.6" y2="152"/>
	<line class="st0" x1="355.8" y1="154" x2="355.8" y2="154"/>
	<line class="st0" x1="348" y1="156" x2="348.1" y2="156"/>
	<line class="st0" x1="340.3" y1="158" x2="340.3" y2="158"/>
	<line class="st0" x1="332.5" y1="159.9" x2="332.5" y2="159.9"/>
	<line class="st0" x1="324.8" y1="161.8" x2="324.8" y2="161.8"/>
	<line class="st0" x1="317" y1="163.7" x2="317" y2="163.7"/>
	<line class="st0" x1="309.2" y1="165.6" x2="309.2" y2="165.6"/>
	<line class="st0" x1="301.4" y1="167.5" x2="301.4" y2="167.5"/>
	<line class="st0" x1="293.6" y1="169.3" x2="293.6" y2="169.3"/>
	<line class="st0" x1="285.8" y1="171.2" x2="285.9" y2="171.2"/>
	<line class="st0" x1="278" y1="173.1" x2="278" y2="173.1"/>
	<line class="st0" x1="270.3" y1="174.9" x2="270.3" y2="174.9"/>
	<line class="st0" x1="262.5" y1="176.8" x2="262.5" y2="176.8"/>
	<line class="st0" x1="254.7" y1="178.7" x2="254.7" y2="178.7"/>
	<line class="st0" x1="247" y1="180.6" x2="247" y2="180.6"/>
	<line class="st0" x1="239.1" y1="182.5" x2="239.2" y2="182.5"/>
	<line class="st0" x1="231.4" y1="184.5" x2="231.4" y2="184.5"/>
	<line class="st0" x1="223.7" y1="186.5" x2="223.7" y2="186.5"/>
	<line class="st0" x1="215.9" y1="188.5" x2="215.9" y2="188.5"/>
	<line class="st0" x1="208.1" y1="190.5" x2="208.1" y2="190.5"/>
	<line class="st0" x1="200.4" y1="192.6" x2="200.4" y2="192.6"/>
	<line class="st0" x1="192.7" y1="194.7" x2="192.7" y2="194.7"/>
	<line class="st0" x1="185" y1="196.9" x2="185" y2="196.9"/>
	<line class="st0" x1="177.3" y1="199.1" x2="177.3" y2="199.1"/>
	<line class="st0" x1="169.5" y1="201.4" x2="169.6" y2="201.4"/>
	<line class="st0" x1="161.9" y1="203.7" x2="161.9" y2="203.7"/>
	<line class="st0" x1="154.2" y1="206" x2="154.3" y2="206"/>
	<line class="st0" x1="146.6" y1="208.5" x2="146.6" y2="208.5"/>
	<line class="st0" x1="139" y1="211" x2="139" y2="211"/>
	<line class="st0" x1="131.4" y1="213.5" x2="131.4" y2="213.5"/>
	<line class="st0" x1="123.9" y1="216.2" x2="123.9" y2="216.2"/>
	<line class="st0" x1="116.3" y1="218.9" x2="116.4" y2="218.9"/>
	<line class="st0" x1="108.9" y1="221.6" x2="108.9" y2="221.6"/>
	<line class="st0" x1="101.4" y1="224.5" x2="101.5" y2="224.5"/>
	<line class="st0" x1="94" y1="227.4" x2="94" y2="227.4"/>
	<line class="st0" x1="86.6" y1="230.5" x2="86.6" y2="230.5"/>
	<line class="st0" x1="79.2" y1="233.6" x2="79.2" y2="233.6"/>
	<line class="st0" x1="71.9" y1="236.8" x2="71.9" y2="236.8"/>
	<line class="st0" x1="64.6" y1="240.1" x2="64.6" y2="240.1"/>
	<line class="st0" x1="57.4" y1="243.6" x2="57.4" y2="243.6"/>
	<line class="st0" x1="50.2" y1="247.1" x2="50.2" y2="247.1"/>
	<line class="st0" x1="43.1" y1="250.8" x2="43.1" y2="250.8"/>
	<line class="st0" x1="36" y1="254.6" x2="36.1" y2="254.6"/>
	<line class="st0" x1="29.1" y1="258.5" x2="29.1" y2="258.5"/>
	<line class="st0" x1="22.2" y1="262.5" x2="22.2" y2="262.5"/>
	<line class="st0" x1="15.4" y1="266.7" x2="15.4" y2="266.7"/>
	<line class="st0" x1="8.6" y1="271" x2="8.6" y2="271"/>
	<line class="st0" x1="2" y1="275.5" x2="2" y2="275.5"/>
</g>
</svg>
