<svg id="b9465094-03d7-4155-ae57-4508cc8b1584" data-name="Layer 1" xmlns="http://www.w3.org/2000/svg" width="378.17" height="502.14" viewBox="0 0 378.17 502.14"><line x1="3.66" y1="4.68" x2="3.76" y2="4.68" fill="none" stroke="#fff" stroke-linecap="round" stroke-miterlimit="10" stroke-width="4"/><line x1="11.37" y1="6.56" x2="11.47" y2="6.56" fill="none" stroke="#fff" stroke-linecap="round" stroke-miterlimit="10" stroke-width="4"/><line x1="18.91" y1="9.16" x2="19.01" y2="9.16" fill="none" stroke="#fff" stroke-linecap="round" stroke-miterlimit="10" stroke-width="4"/><line x1="26.51" y1="11.76" x2="26.61" y2="11.76" fill="none" stroke="#fff" stroke-linecap="round" stroke-miterlimit="10" stroke-width="4"/><line x1="34.01" y1="14.56" x2="34.11" y2="14.56" fill="none" stroke="#fff" stroke-linecap="round" stroke-miterlimit="10" stroke-width="4"/><line x1="41.51" y1="17.28" x2="41.61" y2="17.28" fill="none" stroke="#fff" stroke-linecap="round" stroke-miterlimit="10" stroke-width="4"/><line x1="49.01" y1="20.16" x2="49.11" y2="20.16" fill="none" stroke="#fff" stroke-linecap="round" stroke-miterlimit="10" stroke-width="4"/><line x1="56.51" y1="23.16" x2="56.61" y2="23.16" fill="none" stroke="#fff" stroke-linecap="round" stroke-miterlimit="10" stroke-width="4"/><line x1="63.91" y1="26.17" x2="64.01" y2="26.17" fill="none" stroke="#fff" stroke-linecap="round" stroke-miterlimit="10" stroke-width="4"/><line x1="71.31" y1="29.17" x2="71.41" y2="29.17" fill="none" stroke="#fff" stroke-linecap="round" stroke-miterlimit="10" stroke-width="4"/><line x1="78.71" y1="32.38" x2="78.81" y2="32.38" fill="none" stroke="#fff" stroke-linecap="round" stroke-miterlimit="10" stroke-width="4"/><line x1="86.07" y1="35.56" x2="86.17" y2="35.56" fill="none" stroke="#fff" stroke-linecap="round" stroke-miterlimit="10" stroke-width="4"/><line x1="93.41" y1="38.88" x2="93.51" y2="38.88" fill="none" stroke="#fff" stroke-linecap="round" stroke-miterlimit="10" stroke-width="4"/><line x1="100.71" y1="42.16" x2="100.81" y2="42.16" fill="none" stroke="#fff" stroke-linecap="round" stroke-miterlimit="10" stroke-width="4"/><line x1="107.91" y1="45.66" x2="108.01" y2="45.66" fill="none" stroke="#fff" stroke-linecap="round" stroke-miterlimit="10" stroke-width="4"/><line x1="115.11" y1="49.16" x2="115.21" y2="49.16" fill="none" stroke="#fff" stroke-linecap="round" stroke-miterlimit="10" stroke-width="4"/><line x1="122.31" y1="52.66" x2="122.41" y2="52.66" fill="none" stroke="#fff" stroke-linecap="round" stroke-miterlimit="10" stroke-width="4"/><line x1="129.41" y1="56.37" x2="129.51" y2="56.37" fill="none" stroke="#fff" stroke-linecap="round" stroke-miterlimit="10" stroke-width="4"/><line x1="136.51" y1="60.06" x2="136.61" y2="60.06" fill="none" stroke="#fff" stroke-linecap="round" stroke-miterlimit="10" stroke-width="4"/><line x1="143.51" y1="63.78" x2="143.61" y2="63.78" fill="none" stroke="#fff" stroke-linecap="round" stroke-miterlimit="10" stroke-width="4"/><line x1="150.57" y1="67.56" x2="150.67" y2="67.56" fill="none" stroke="#fff" stroke-linecap="round" stroke-miterlimit="10" stroke-width="4"/><line x1="157.61" y1="71.57" x2="157.71" y2="71.57" fill="none" stroke="#fff" stroke-linecap="round" stroke-miterlimit="10" stroke-width="4"/><line x1="164.51" y1="75.56" x2="164.61" y2="75.56" fill="none" stroke="#fff" stroke-linecap="round" stroke-miterlimit="10" stroke-width="4"/><line x1="171.41" y1="79.56" x2="171.51" y2="79.56" fill="none" stroke="#fff" stroke-linecap="round" stroke-miterlimit="10" stroke-width="4"/><line x1="178.31" y1="83.76" x2="178.41" y2="83.76" fill="none" stroke="#fff" stroke-linecap="round" stroke-miterlimit="10" stroke-width="4"/><line x1="185.01" y1="87.96" x2="185.11" y2="87.96" fill="none" stroke="#fff" stroke-linecap="round" stroke-miterlimit="10" stroke-width="4"/><line x1="191.81" y1="92.17" x2="191.91" y2="92.17" fill="none" stroke="#fff" stroke-linecap="round" stroke-miterlimit="10" stroke-width="4"/><line x1="198.51" y1="96.56" x2="198.61" y2="96.56" fill="none" stroke="#fff" stroke-linecap="round" stroke-miterlimit="10" stroke-width="4"/><line x1="205.21" y1="100.97" x2="205.31" y2="100.97" fill="none" stroke="#fff" stroke-linecap="round" stroke-miterlimit="10" stroke-width="4"/><line x1="211.81" y1="105.56" x2="211.91" y2="105.56" fill="none" stroke="#fff" stroke-linecap="round" stroke-miterlimit="10" stroke-width="4"/><line x1="218.37" y1="110.16" x2="218.47" y2="110.16" fill="none" stroke="#fff" stroke-linecap="round" stroke-miterlimit="10" stroke-width="4"/><line x1="224.81" y1="114.86" x2="224.91" y2="114.86" fill="none" stroke="#fff" stroke-linecap="round" stroke-miterlimit="10" stroke-width="4"/><line x1="231.27" y1="119.56" x2="231.37" y2="119.56" fill="none" stroke="#fff" stroke-linecap="round" stroke-miterlimit="10" stroke-width="4"/><line x1="237.61" y1="124.47" x2="237.71" y2="124.47" fill="none" stroke="#fff" stroke-linecap="round" stroke-miterlimit="10" stroke-width="4"/><line x1="243.91" y1="129.36" x2="244.01" y2="129.36" fill="none" stroke="#fff" stroke-linecap="round" stroke-miterlimit="10" stroke-width="4"/><line x1="250.19" y1="134.36" x2="250.29" y2="134.36" fill="none" stroke="#fff" stroke-linecap="round" stroke-miterlimit="10" stroke-width="4"/><line x1="256.31" y1="139.47" x2="256.41" y2="139.47" fill="none" stroke="#fff" stroke-linecap="round" stroke-miterlimit="10" stroke-width="4"/><line x1="262.41" y1="144.66" x2="262.51" y2="144.66" fill="none" stroke="#fff" stroke-linecap="round" stroke-miterlimit="10" stroke-width="4"/><line x1="268.41" y1="149.96" x2="268.51" y2="149.96" fill="none" stroke="#fff" stroke-linecap="round" stroke-miterlimit="10" stroke-width="4"/><line x1="274.31" y1="155.36" x2="274.41" y2="155.36" fill="none" stroke="#fff" stroke-linecap="round" stroke-miterlimit="10" stroke-width="4"/><line x1="280.19" y1="160.86" x2="280.29" y2="160.86" fill="none" stroke="#fff" stroke-linecap="round" stroke-miterlimit="10" stroke-width="4"/><line x1="285.91" y1="166.46" x2="286.01" y2="166.46" fill="none" stroke="#fff" stroke-linecap="round" stroke-miterlimit="10" stroke-width="4"/><line x1="291.61" y1="172.06" x2="291.71" y2="172.06" fill="none" stroke="#fff" stroke-linecap="round" stroke-miterlimit="10" stroke-width="4"/><line x1="297.11" y1="177.86" x2="297.21" y2="177.86" fill="none" stroke="#fff" stroke-linecap="round" stroke-miterlimit="10" stroke-width="4"/><line x1="302.51" y1="183.66" x2="302.61" y2="183.66" fill="none" stroke="#fff" stroke-linecap="round" stroke-miterlimit="10" stroke-width="4"/><line x1="307.91" y1="189.67" x2="308.01" y2="189.67" fill="none" stroke="#fff" stroke-linecap="round" stroke-miterlimit="10" stroke-width="4"/><line x1="313.01" y1="195.78" x2="313.11" y2="195.78" fill="none" stroke="#fff" stroke-linecap="round" stroke-miterlimit="10" stroke-width="4"/><line x1="318.11" y1="201.97" x2="318.21" y2="201.97" fill="none" stroke="#fff" stroke-linecap="round" stroke-miterlimit="10" stroke-width="4"/><line x1="323.01" y1="208.26" x2="323.11" y2="208.26" fill="none" stroke="#fff" stroke-linecap="round" stroke-miterlimit="10" stroke-width="4"/><line x1="327.81" y1="214.78" x2="327.91" y2="214.78" fill="none" stroke="#fff" stroke-linecap="round" stroke-miterlimit="10" stroke-width="4"/><line x1="332.41" y1="221.26" x2="332.51" y2="221.26" fill="none" stroke="#fff" stroke-linecap="round" stroke-miterlimit="10" stroke-width="4"/><line x1="336.91" y1="227.86" x2="337.01" y2="227.86" fill="none" stroke="#fff" stroke-linecap="round" stroke-miterlimit="10" stroke-width="4"/><line x1="341.12" y1="234.67" x2="341.22" y2="234.67" fill="none" stroke="#fff" stroke-linecap="round" stroke-miterlimit="10" stroke-width="4"/><line x1="345.21" y1="241.57" x2="345.31" y2="241.57" fill="none" stroke="#fff" stroke-linecap="round" stroke-miterlimit="10" stroke-width="4"/><line x1="349.11" y1="248.57" x2="349.21" y2="248.57" fill="none" stroke="#fff" stroke-linecap="round" stroke-miterlimit="10" stroke-width="4"/><line x1="352.81" y1="255.66" x2="352.91" y2="255.66" fill="none" stroke="#fff" stroke-linecap="round" stroke-miterlimit="10" stroke-width="4"/><line x1="356.21" y1="262.86" x2="356.31" y2="262.86" fill="none" stroke="#fff" stroke-linecap="round" stroke-miterlimit="10" stroke-width="4"/><line x1="359.37" y1="270.16" x2="359.47" y2="270.16" fill="none" stroke="#fff" stroke-linecap="round" stroke-miterlimit="10" stroke-width="4"/><line x1="362.31" y1="277.67" x2="362.41" y2="277.67" fill="none" stroke="#fff" stroke-linecap="round" stroke-miterlimit="10" stroke-width="4"/><line x1="364.91" y1="285.16" x2="365.01" y2="285.16" fill="none" stroke="#fff" stroke-linecap="round" stroke-miterlimit="10" stroke-width="4"/><line x1="367.31" y1="292.97" x2="367.41" y2="292.97" fill="none" stroke="#fff" stroke-linecap="round" stroke-miterlimit="10" stroke-width="4"/><line x1="369.31" y1="300.57" x2="369.41" y2="300.57" fill="none" stroke="#fff" stroke-linecap="round" stroke-miterlimit="10" stroke-width="4"/><line x1="371.01" y1="308.37" x2="371.11" y2="308.37" fill="none" stroke="#fff" stroke-linecap="round" stroke-miterlimit="10" stroke-width="4"/><line x1="372.41" y1="316.26" x2="372.51" y2="316.26" fill="none" stroke="#fff" stroke-linecap="round" stroke-miterlimit="10" stroke-width="4"/><line x1="373.41" y1="324.16" x2="373.51" y2="324.16" fill="none" stroke="#fff" stroke-linecap="round" stroke-miterlimit="10" stroke-width="4"/><line x1="374.07" y1="332.16" x2="374.17" y2="332.16" fill="none" stroke="#fff" stroke-linecap="round" stroke-miterlimit="10" stroke-width="4"/><line x1="374.41" y1="340.17" x2="374.51" y2="340.17" fill="none" stroke="#fff" stroke-linecap="round" stroke-miterlimit="10" stroke-width="4"/><line x1="374.21" y1="348.16" x2="374.31" y2="348.16" fill="none" stroke="#fff" stroke-linecap="round" stroke-miterlimit="10" stroke-width="4"/><line x1="373.71" y1="356.16" x2="373.81" y2="356.16" fill="none" stroke="#fff" stroke-linecap="round" stroke-miterlimit="10" stroke-width="4"/><line x1="372.81" y1="364.06" x2="372.91" y2="364.06" fill="none" stroke="#fff" stroke-linecap="round" stroke-miterlimit="10" stroke-width="4"/><line x1="371.51" y1="371.96" x2="371.61" y2="371.96" fill="none" stroke="#fff" stroke-linecap="round" stroke-miterlimit="10" stroke-width="4"/><line x1="369.81" y1="379.78" x2="369.91" y2="379.78" fill="none" stroke="#fff" stroke-linecap="round" stroke-miterlimit="10" stroke-width="4"/><line x1="367.81" y1="387.56" x2="367.91" y2="387.56" fill="none" stroke="#fff" stroke-linecap="round" stroke-miterlimit="10" stroke-width="4"/><line x1="365.41" y1="395.16" x2="365.51" y2="395.16" fill="none" stroke="#fff" stroke-linecap="round" stroke-miterlimit="10" stroke-width="4"/><line x1="362.61" y1="402.66" x2="362.71" y2="402.66" fill="none" stroke="#fff" stroke-linecap="round" stroke-miterlimit="10" stroke-width="4"/><line x1="359.51" y1="410.06" x2="359.61" y2="410.06" fill="none" stroke="#fff" stroke-linecap="round" stroke-miterlimit="10" stroke-width="4"/><line x1="356.21" y1="417.28" x2="356.31" y2="417.28" fill="none" stroke="#fff" stroke-linecap="round" stroke-miterlimit="10" stroke-width="4"/><line x1="352.51" y1="424.36" x2="352.61" y2="424.36" fill="none" stroke="#fff" stroke-linecap="round" stroke-miterlimit="10" stroke-width="4"/><line x1="348.51" y1="431.26" x2="348.61" y2="431.26" fill="none" stroke="#fff" stroke-linecap="round" stroke-miterlimit="10" stroke-width="4"/><line x1="344.27" y1="438.06" x2="344.37" y2="438.06" fill="none" stroke="#fff" stroke-linecap="round" stroke-miterlimit="10" stroke-width="4"/><line x1="339.81" y1="444.67" x2="339.91" y2="444.67" fill="none" stroke="#fff" stroke-linecap="round" stroke-miterlimit="10" stroke-width="4"/><line x1="335.11" y1="451.16" x2="335.21" y2="451.16" fill="none" stroke="#fff" stroke-linecap="round" stroke-miterlimit="10" stroke-width="4"/><line x1="330.21" y1="457.46" x2="330.31" y2="457.46" fill="none" stroke="#fff" stroke-linecap="round" stroke-miterlimit="10" stroke-width="4"/><line x1="325.11" y1="463.67" x2="325.21" y2="463.67" fill="none" stroke="#fff" stroke-linecap="round" stroke-miterlimit="10" stroke-width="4"/><line x1="319.77" y1="469.66" x2="319.87" y2="469.66" fill="none" stroke="#fff" stroke-linecap="round" stroke-miterlimit="10" stroke-width="4"/><line x1="314.31" y1="475.56" x2="314.41" y2="475.56" fill="none" stroke="#fff" stroke-linecap="round" stroke-miterlimit="10" stroke-width="4"/><line x1="308.71" y1="481.28" x2="308.81" y2="481.28" fill="none" stroke="#fff" stroke-linecap="round" stroke-miterlimit="10" stroke-width="4"/><line x1="302.97" y1="486.76" x2="303.07" y2="486.76" fill="none" stroke="#fff" stroke-linecap="round" stroke-miterlimit="10" stroke-width="4"/><line x1="297.12" y1="492.16" x2="297.22" y2="492.16" fill="none" stroke="#fff" stroke-linecap="round" stroke-miterlimit="10" stroke-width="4"/><line x1="291.11" y1="497.46" x2="291.21" y2="497.46" fill="none" stroke="#fff" stroke-linecap="round" stroke-miterlimit="10" stroke-width="4"/></svg>