<?xml version="1.0" encoding="utf-8"?>
<!-- Generator: Adobe Illustrator 25.4.1, SVG Export Plug-In . SVG Version: 6.00 Build 0)  -->
<svg version="1.1" id="Layer_1" xmlns="http://www.w3.org/2000/svg" xmlns:xlink="http://www.w3.org/1999/xlink" x="0px" y="0px"
	 viewBox="0 0 277.5 350.1" style="enable-background:new 0 0 277.5 350.1;" xml:space="preserve">
<style type="text/css">
	.st0{stroke:#FFFFFF;stroke-width:4;stroke-linecap:round;}
</style>
<g>
	<line class="st0" x1="67.4" y1="2" x2="67.4" y2="2"/>
	<line class="st0" x1="60.8" y1="6.5" x2="60.8" y2="6.5"/>
	<line class="st0" x1="54.4" y1="11.3" x2="54.4" y2="11.3"/>
	<line class="st0" x1="48.1" y1="16.2" x2="48.1" y2="16.2"/>
	<line class="st0" x1="42" y1="21.4" x2="42" y2="21.4"/>
	<line class="st0" x1="36.1" y1="26.8" x2="36.1" y2="26.8"/>
	<line class="st0" x1="30.5" y1="32.5" x2="30.5" y2="32.5"/>
	<line class="st0" x1="25.2" y1="38.5" x2="25.2" y2="38.5"/>
	<line class="st0" x1="20.2" y1="44.8" x2="20.2" y2="44.8"/>
	<line class="st0" x1="15.7" y1="51.4" x2="15.7" y2="51.4"/>
	<line class="st0" x1="11.7" y1="58.3" x2="11.7" y2="58.3"/>
	<line class="st0" x1="8.3" y1="65.6" x2="8.3" y2="65.6"/>
	<line class="st0" x1="5.6" y1="73.1" x2="5.6" y2="73.1"/>
	<line class="st0" x1="3.6" y1="80.8" x2="3.6" y2="80.8"/>
	<line class="st0" x1="2.4" y1="88.7" x2="2.4" y2="88.7"/>
	<line class="st0" x1="2" y1="96.7" x2="2" y2="96.7"/>
	<line class="st0" x1="2.4" y1="104.6" x2="2.4" y2="104.6"/>
	<line class="st0" x1="3.5" y1="112.5" x2="3.5" y2="112.5"/>
	<line class="st0" x1="5.4" y1="120.3" x2="5.4" y2="120.3"/>
	<line class="st0" x1="7.8" y1="127.9" x2="7.8" y2="127.9"/>
	<line class="st0" x1="10.8" y1="135.3" x2="10.9" y2="135.3"/>
	<line class="st0" x1="14.3" y1="142.5" x2="14.3" y2="142.5"/>
	<line class="st0" x1="18.2" y1="149.5" x2="18.2" y2="149.5"/>
	<line class="st0" x1="22.4" y1="156.3" x2="22.4" y2="156.3"/>
	<line class="st0" x1="26.9" y1="162.9" x2="26.9" y2="162.9"/>
	<line class="st0" x1="31.7" y1="169.3" x2="31.7" y2="169.3"/>
	<line class="st0" x1="36.7" y1="175.6" x2="36.7" y2="175.6"/>
	<line class="st0" x1="41.9" y1="181.7" x2="41.9" y2="181.7"/>
	<line class="st0" x1="47.3" y1="187.6" x2="47.3" y2="187.6"/>
	<line class="st0" x1="52.8" y1="193.4" x2="52.8" y2="193.4"/>
	<line class="st0" x1="58.4" y1="199.1" x2="58.5" y2="199.1"/>
	<line class="st0" x1="64.2" y1="204.6" x2="64.2" y2="204.6"/>
	<line class="st0" x1="70.1" y1="210.1" x2="70.1" y2="210.1"/>
	<line class="st0" x1="76.1" y1="215.4" x2="76.1" y2="215.4"/>
	<line class="st0" x1="82.1" y1="220.6" x2="82.1" y2="220.6"/>
	<line class="st0" x1="88.2" y1="225.7" x2="88.3" y2="225.7"/>
	<line class="st0" x1="94.4" y1="230.8" x2="94.5" y2="230.8"/>
	<line class="st0" x1="100.7" y1="235.8" x2="100.7" y2="235.8"/>
	<line class="st0" x1="107" y1="240.7" x2="107" y2="240.7"/>
	<line class="st0" x1="113.4" y1="245.5" x2="113.4" y2="245.5"/>
	<line class="st0" x1="119.9" y1="250.2" x2="119.9" y2="250.2"/>
	<line class="st0" x1="126.4" y1="255" x2="126.4" y2="255"/>
	<line class="st0" x1="132.9" y1="259.6" x2="132.9" y2="259.6"/>
	<line class="st0" x1="139.4" y1="264.2" x2="139.4" y2="264.2"/>
	<line class="st0" x1="146" y1="268.7" x2="146" y2="268.7"/>
	<line class="st0" x1="152.6" y1="273.2" x2="152.6" y2="273.2"/>
	<line class="st0" x1="159.3" y1="277.7" x2="159.3" y2="277.7"/>
	<line class="st0" x1="166" y1="282.1" x2="166" y2="282.1"/>
	<line class="st0" x1="172.7" y1="286.4" x2="172.7" y2="286.4"/>
	<line class="st0" x1="179.4" y1="290.7" x2="179.4" y2="290.7"/>
	<line class="st0" x1="186.2" y1="295" x2="186.2" y2="295"/>
	<line class="st0" x1="193" y1="299.3" x2="193" y2="299.3"/>
	<line class="st0" x1="199.8" y1="303.5" x2="199.8" y2="303.5"/>
	<line class="st0" x1="206.6" y1="307.7" x2="206.6" y2="307.7"/>
	<line class="st0" x1="213.4" y1="311.8" x2="213.5" y2="311.8"/>
	<line class="st0" x1="220.3" y1="316" x2="220.3" y2="316"/>
	<line class="st0" x1="227.2" y1="320" x2="227.2" y2="320"/>
	<line class="st0" x1="234.1" y1="324.1" x2="234.1" y2="324.1"/>
	<line class="st0" x1="241" y1="328.2" x2="241" y2="328.2"/>
	<line class="st0" x1="247.8" y1="332.2" x2="247.9" y2="332.2"/>
	<line class="st0" x1="254.8" y1="336.2" x2="254.8" y2="336.2"/>
	<line class="st0" x1="261.7" y1="340.2" x2="261.7" y2="340.2"/>
	<line class="st0" x1="268.6" y1="344.2" x2="268.6" y2="344.2"/>
	<line class="st0" x1="275.5" y1="348.1" x2="275.6" y2="348.1"/>
</g>
</svg>
